<svg width="44" height="44" viewBox="0 0 44 44" fill="none" xmlns="http://www.w3.org/2000/svg">
<circle cx="22" cy="22" r="22" fill="#E6C348"/>
<path d="M31.4286 19.25H24.3571V12.5C24.3571 11.6717 23.6534 11 22.7857 11H21.2143C20.3466 11 19.6429 11.6717 19.6429 12.5V19.25H12.5714C11.7037 19.25 11 19.9217 11 20.75V22.25C11 23.0783 11.7037 23.75 12.5714 23.75H19.6429V30.5C19.6429 31.3283 20.3466 32 21.2143 32H22.7857C23.6534 32 24.3571 31.3283 24.3571 30.5V23.75H31.4286C32.2963 23.75 33 23.0783 33 22.25V20.75C33 19.9217 32.2963 19.25 31.4286 19.25Z" fill="white"/>
</svg>
