<svg width="44" height="44" viewBox="0 0 44 44" fill="none" xmlns="http://www.w3.org/2000/svg">
<circle cx="22" cy="22" r="22" fill="#6C757D"/>
<g clip-path="url(#clip0)">
<path d="M10.6335 27.5012C13.7935 33.6527 21.6862 35.7115 27.7051 32.3661C28.1778 32.0881 28.3716 31.5008 28.0923 30.9771C27.8143 30.5045 27.227 30.3106 26.7033 30.59C21.6756 33.3781 15.1195 31.6568 12.4674 26.5591C8.94909 19.7941 13.1179 14.455 16.5572 12.4289C21.2383 9.6652 27.311 11.2563 30.3077 15.6759L26.7519 15.0294C26.2184 14.9363 25.6452 15.2731 25.5534 15.8577C25.4602 16.3912 25.7971 16.9644 26.3816 17.0562L32.6816 18.1665C33.7355 18.2408 33.935 17.2857 33.8704 16.9657L32.9075 10.6694C32.8424 10.14 32.4039 9.77882 31.8732 9.79284C31.2201 9.81009 30.8287 10.4587 30.8951 11.0391L31.2693 13.608C28.2448 10.0725 22.4023 7.14252 15.4912 10.5421C12.5668 12.1513 5.91824 18.3371 10.6335 27.5012Z" fill="white"/>
</g>
<defs>
<clipPath id="clip0">
<rect width="25" height="25" fill="white" transform="translate(9 9)"/>
</clipPath>
</defs>
</svg>
