<svg width="44" height="44" viewBox="0 0 44 44" fill="none" xmlns="http://www.w3.org/2000/svg">
<circle cx="22" cy="22" r="22" fill="white"/>
<g clip-path="url(#clip0)">
<path d="M8.96099 29.2013C12.7529 36.5831 22.2242 39.0536 29.4469 35.0392C30.0141 34.7056 30.2468 34.0009 29.9115 33.3724C29.5779 32.8052 28.8732 32.5726 28.2448 32.9079C22.2115 36.2536 14.3441 34.188 11.1616 28.0708C6.93968 19.9528 11.9423 13.5459 16.0694 11.1145C21.6867 7.79809 28.974 9.70744 32.5701 15.011L28.3031 14.2352C27.6628 14.1234 26.975 14.5276 26.8648 15.2291C26.753 15.8693 27.1572 16.5572 27.8587 16.6673L35.4187 17.9996C36.6834 18.0888 36.9228 16.9427 36.8452 16.5587L35.6897 9.00309C35.6117 8.36787 35.0855 7.93444 34.4487 7.95126C33.6649 7.97196 33.1952 8.75033 33.2749 9.44678L33.724 12.5294C30.0946 8.28685 23.0835 4.77088 14.7902 8.85037C11.281 10.7814 3.30267 18.2044 8.96099 29.2013Z" fill="#3C3C3C"/>
</g>
<defs>
<clipPath id="clip0">
<rect width="30" height="30" fill="white" transform="translate(7 7)"/>
</clipPath>
</defs>
</svg>
