<svg width="44" height="44" viewBox="0 0 44 44" fill="none" xmlns="http://www.w3.org/2000/svg">
<circle cx="22" cy="22" r="22" fill="#6C757D"/>
<path d="M13.75 20.5C15.1289 20.5 16.25 19.3789 16.25 18C16.25 16.6211 15.1289 15.5 13.75 15.5C12.3711 15.5 11.25 16.6211 11.25 18C11.25 19.3789 12.3711 20.5 13.75 20.5ZM31.25 20.5C32.6289 20.5 33.75 19.3789 33.75 18C33.75 16.6211 32.6289 15.5 31.25 15.5C29.8711 15.5 28.75 16.6211 28.75 18C28.75 19.3789 29.8711 20.5 31.25 20.5ZM32.5 21.75H30C29.3125 21.75 28.6914 22.0273 28.2383 22.4766C29.8125 23.3398 30.9297 24.8984 31.1719 26.75H33.75C34.4414 26.75 35 26.1914 35 25.5V24.25C35 22.8711 33.8789 21.75 32.5 21.75ZM22.5 21.75C24.918 21.75 26.875 19.793 26.875 17.375C26.875 14.957 24.918 13 22.5 13C20.082 13 18.125 14.957 18.125 17.375C18.125 19.793 20.082 21.75 22.5 21.75ZM25.5 23H25.1758C24.3633 23.3906 23.4609 23.625 22.5 23.625C21.5391 23.625 20.6406 23.3906 19.8242 23H19.5C17.0156 23 15 25.0156 15 27.5V28.625C15 29.6602 15.8398 30.5 16.875 30.5H28.125C29.1602 30.5 30 29.6602 30 28.625V27.5C30 25.0156 27.9844 23 25.5 23ZM16.7617 22.4766C16.3086 22.0273 15.6875 21.75 15 21.75H12.5C11.1211 21.75 10 22.8711 10 24.25V25.5C10 26.1914 10.5586 26.75 11.25 26.75H13.8242C14.0703 24.8984 15.1875 23.3398 16.7617 22.4766Z" fill="white"/>
</svg>
