<svg width="44" height="44" viewBox="0 0 44 44" fill="none" xmlns="http://www.w3.org/2000/svg">
<circle cx="22" cy="22" r="22" fill="#BC4343"/>
<path d="M18.875 18.875C19.0408 18.875 19.1997 18.9408 19.3169 19.0581C19.4342 19.1753 19.5 19.3342 19.5 19.5V27C19.5 27.1658 19.4342 27.3247 19.3169 27.4419C19.1997 27.5592 19.0408 27.625 18.875 27.625C18.7092 27.625 18.5503 27.5592 18.4331 27.4419C18.3158 27.3247 18.25 27.1658 18.25 27V19.5C18.25 19.3342 18.3158 19.1753 18.4331 19.0581C18.5503 18.9408 18.7092 18.875 18.875 18.875V18.875ZM22 18.875C22.1658 18.875 22.3247 18.9408 22.4419 19.0581C22.5592 19.1753 22.625 19.3342 22.625 19.5V27C22.625 27.1658 22.5592 27.3247 22.4419 27.4419C22.3247 27.5592 22.1658 27.625 22 27.625C21.8342 27.625 21.6753 27.5592 21.5581 27.4419C21.4408 27.3247 21.375 27.1658 21.375 27V19.5C21.375 19.3342 21.4408 19.1753 21.5581 19.0581C21.6753 18.9408 21.8342 18.875 22 18.875V18.875ZM25.75 19.5C25.75 19.3342 25.6842 19.1753 25.5669 19.0581C25.4497 18.9408 25.2908 18.875 25.125 18.875C24.9592 18.875 24.8003 18.9408 24.6831 19.0581C24.5658 19.1753 24.5 19.3342 24.5 19.5V27C24.5 27.1658 24.5658 27.3247 24.6831 27.4419C24.8003 27.5592 24.9592 27.625 25.125 27.625C25.2908 27.625 25.4497 27.5592 25.5669 27.4419C25.6842 27.3247 25.75 27.1658 25.75 27V19.5Z" fill="white"/>
<path fill-rule="evenodd" clip-rule="evenodd" d="M30.125 15.75C30.125 16.0815 29.9933 16.3995 29.7589 16.6339C29.5245 16.8683 29.2065 17 28.875 17H28.25V28.25C28.25 28.913 27.9866 29.5489 27.5178 30.0178C27.0489 30.4866 26.413 30.75 25.75 30.75H18.25C17.587 30.75 16.9511 30.4866 16.4822 30.0178C16.0134 29.5489 15.75 28.913 15.75 28.25V17H15.125C14.7935 17 14.4755 16.8683 14.2411 16.6339C14.0067 16.3995 13.875 16.0815 13.875 15.75V14.5C13.875 14.1685 14.0067 13.8505 14.2411 13.6161C14.4755 13.3817 14.7935 13.25 15.125 13.25H19.5C19.5 12.9185 19.6317 12.6005 19.8661 12.3661C20.1005 12.1317 20.4185 12 20.75 12H23.25C23.5815 12 23.8995 12.1317 24.1339 12.3661C24.3683 12.6005 24.5 12.9185 24.5 13.25H28.875C29.2065 13.25 29.5245 13.3817 29.7589 13.6161C29.9933 13.8505 30.125 14.1685 30.125 14.5V15.75ZM17.1475 17L17 17.0738V28.25C17 28.5815 17.1317 28.8995 17.3661 29.1339C17.6005 29.3683 17.9185 29.5 18.25 29.5H25.75C26.0815 29.5 26.3995 29.3683 26.6339 29.1339C26.8683 28.8995 27 28.5815 27 28.25V17.0738L26.8525 17H17.1475ZM15.125 15.75V14.5H28.875V15.75H15.125Z" fill="white"/>
</svg>
