<svg width="44" height="44" viewBox="0 0 44 44" fill="none" xmlns="http://www.w3.org/2000/svg">
<circle cx="22" cy="22" r="22" fill="#6C757D"/>
<path d="M17.5938 18.5938C17.801 18.5938 17.9997 18.6761 18.1462 18.8226C18.2927 18.9691 18.375 19.1678 18.375 19.375V28.75C18.375 28.9572 18.2927 29.1559 18.1462 29.3024C17.9997 29.4489 17.801 29.5312 17.5938 29.5312C17.3865 29.5312 17.1878 29.4489 17.0413 29.3024C16.8948 29.1559 16.8125 28.9572 16.8125 28.75V19.375C16.8125 19.1678 16.8948 18.9691 17.0413 18.8226C17.1878 18.6761 17.3865 18.5938 17.5938 18.5938V18.5938ZM21.5 18.5938C21.7072 18.5938 21.9059 18.6761 22.0524 18.8226C22.1989 18.9691 22.2812 19.1678 22.2812 19.375V28.75C22.2812 28.9572 22.1989 29.1559 22.0524 29.3024C21.9059 29.4489 21.7072 29.5312 21.5 29.5312C21.2928 29.5312 21.0941 29.4489 20.9476 29.3024C20.8011 29.1559 20.7188 28.9572 20.7188 28.75V19.375C20.7188 19.1678 20.8011 18.9691 20.9476 18.8226C21.0941 18.6761 21.2928 18.5938 21.5 18.5938V18.5938ZM26.1875 19.375C26.1875 19.1678 26.1052 18.9691 25.9587 18.8226C25.8122 18.6761 25.6135 18.5938 25.4062 18.5938C25.199 18.5938 25.0003 18.6761 24.8538 18.8226C24.7073 18.9691 24.625 19.1678 24.625 19.375V28.75C24.625 28.9572 24.7073 29.1559 24.8538 29.3024C25.0003 29.4489 25.199 29.5312 25.4062 29.5312C25.6135 29.5312 25.8122 29.4489 25.9587 29.3024C26.1052 29.1559 26.1875 28.9572 26.1875 28.75V19.375Z" fill="#EFEFEF"/>
<path fill-rule="evenodd" clip-rule="evenodd" d="M31.6562 14.6875C31.6562 15.1019 31.4916 15.4993 31.1986 15.7924C30.9056 16.0854 30.5082 16.25 30.0938 16.25H29.3125V30.3125C29.3125 31.1413 28.9833 31.9362 28.3972 32.5222C27.8112 33.1083 27.0163 33.4375 26.1875 33.4375H16.8125C15.9837 33.4375 15.1888 33.1083 14.6028 32.5222C14.0167 31.9362 13.6875 31.1413 13.6875 30.3125V16.25H12.9062C12.4918 16.25 12.0944 16.0854 11.8014 15.7924C11.5084 15.4993 11.3438 15.1019 11.3438 14.6875V13.125C11.3438 12.7106 11.5084 12.3132 11.8014 12.0201C12.0944 11.7271 12.4918 11.5625 12.9062 11.5625H18.375C18.375 11.1481 18.5396 10.7507 18.8326 10.4576C19.1257 10.1646 19.5231 10 19.9375 10H23.0625C23.4769 10 23.8743 10.1646 24.1674 10.4576C24.4604 10.7507 24.625 11.1481 24.625 11.5625H30.0938C30.5082 11.5625 30.9056 11.7271 31.1986 12.0201C31.4916 12.3132 31.6562 12.7106 31.6562 13.125V14.6875ZM15.4344 16.25L15.25 16.3422V30.3125C15.25 30.7269 15.4146 31.1243 15.7076 31.4174C16.0007 31.7104 16.3981 31.875 16.8125 31.875H26.1875C26.6019 31.875 26.9993 31.7104 27.2924 31.4174C27.5854 31.1243 27.75 30.7269 27.75 30.3125V16.3422L27.5656 16.25H15.4344ZM12.9062 14.6875V13.125H30.0938V14.6875H12.9062Z" fill="#EFEFEF"/>
</svg>
