<svg width="44" height="44" viewBox="0 0 44 44" fill="none" xmlns="http://www.w3.org/2000/svg">
<circle cx="22" cy="22" r="22" fill="white"/>
<path d="M17.3125 17.3125C17.5611 17.3125 17.7996 17.4113 17.9754 17.5871C18.1512 17.7629 18.25 18.0014 18.25 18.25V29.5C18.25 29.7486 18.1512 29.9871 17.9754 30.1629C17.7996 30.3387 17.5611 30.4375 17.3125 30.4375C17.0639 30.4375 16.8254 30.3387 16.6496 30.1629C16.4738 29.9871 16.375 29.7486 16.375 29.5V18.25C16.375 18.0014 16.4738 17.7629 16.6496 17.5871C16.8254 17.4113 17.0639 17.3125 17.3125 17.3125V17.3125ZM22 17.3125C22.2486 17.3125 22.4871 17.4113 22.6629 17.5871C22.8387 17.7629 22.9375 18.0014 22.9375 18.25V29.5C22.9375 29.7486 22.8387 29.9871 22.6629 30.1629C22.4871 30.3387 22.2486 30.4375 22 30.4375C21.7514 30.4375 21.5129 30.3387 21.3371 30.1629C21.1613 29.9871 21.0625 29.7486 21.0625 29.5V18.25C21.0625 18.0014 21.1613 17.7629 21.3371 17.5871C21.5129 17.4113 21.7514 17.3125 22 17.3125V17.3125ZM27.625 18.25C27.625 18.0014 27.5262 17.7629 27.3504 17.5871C27.1746 17.4113 26.9361 17.3125 26.6875 17.3125C26.4389 17.3125 26.2004 17.4113 26.0246 17.5871C25.8488 17.7629 25.75 18.0014 25.75 18.25V29.5C25.75 29.7486 25.8488 29.9871 26.0246 30.1629C26.2004 30.3387 26.4389 30.4375 26.6875 30.4375C26.9361 30.4375 27.1746 30.3387 27.3504 30.1629C27.5262 29.9871 27.625 29.7486 27.625 29.5V18.25Z" fill="#3C3C3C"/>
<path fill-rule="evenodd" clip-rule="evenodd" d="M34.1875 12.625C34.1875 13.1223 33.99 13.5992 33.6383 13.9508C33.2867 14.3025 32.8098 14.5 32.3125 14.5H31.375V31.375C31.375 32.3696 30.9799 33.3234 30.2766 34.0266C29.5734 34.7299 28.6196 35.125 27.625 35.125H16.375C15.3804 35.125 14.4266 34.7299 13.7233 34.0266C13.0201 33.3234 12.625 32.3696 12.625 31.375V14.5H11.6875C11.1902 14.5 10.7133 14.3025 10.3617 13.9508C10.01 13.5992 9.8125 13.1223 9.8125 12.625V10.75C9.8125 10.2527 10.01 9.77581 10.3617 9.42417C10.7133 9.07254 11.1902 8.875 11.6875 8.875H18.25C18.25 8.37772 18.4475 7.90081 18.7992 7.54917C19.1508 7.19754 19.6277 7 20.125 7H23.875C24.3723 7 24.8492 7.19754 25.2008 7.54917C25.5525 7.90081 25.75 8.37772 25.75 8.875H32.3125C32.8098 8.875 33.2867 9.07254 33.6383 9.42417C33.99 9.77581 34.1875 10.2527 34.1875 10.75V12.625ZM14.7213 14.5L14.5 14.6106V31.375C14.5 31.8723 14.6975 32.3492 15.0492 32.7008C15.4008 33.0525 15.8777 33.25 16.375 33.25H27.625C28.1223 33.25 28.5992 33.0525 28.9508 32.7008C29.3025 32.3492 29.5 31.8723 29.5 31.375V14.6106L29.2787 14.5H14.7213ZM11.6875 12.625V10.75H32.3125V12.625H11.6875Z" fill="#3C3C3C"/>
</svg>
