<svg width="350" height="217" viewBox="0 0 350 217" fill="none" xmlns="http://www.w3.org/2000/svg">
<rect width="350" height="217" rx="5" fill="#E2E2E2"/>
<path d="M95.312 97.1758H87.5678L85.8286 102H83.3149L90.3735 83.5156H92.5063L99.5776 102H97.0766L95.312 97.1758ZM88.3041 95.1699H94.5883L91.4399 86.5244L88.3041 95.1699ZM103.919 88.2637L103.996 89.9902C105.045 88.6699 106.416 88.0098 108.109 88.0098C111.012 88.0098 112.476 89.6475 112.501 92.9229V102H110.153V92.9102C110.144 91.9199 109.916 91.1878 109.467 90.7139C109.027 90.2399 108.337 90.0029 107.398 90.0029C106.636 90.0029 105.968 90.2061 105.392 90.6123C104.817 91.0186 104.368 91.5518 104.046 92.2119V102H101.698V88.2637H103.919ZM118.595 102H116.247V88.2637H118.595V102ZM116.056 84.6201C116.056 84.2393 116.17 83.9176 116.399 83.6553C116.636 83.3929 116.983 83.2617 117.44 83.2617C117.897 83.2617 118.244 83.3929 118.481 83.6553C118.718 83.9176 118.836 84.2393 118.836 84.6201C118.836 85.001 118.718 85.3184 118.481 85.5723C118.244 85.8262 117.897 85.9531 117.44 85.9531C116.983 85.9531 116.636 85.8262 116.399 85.5723C116.17 85.3184 116.056 85.001 116.056 84.6201ZM124.575 88.2637L124.638 89.7871C125.645 88.6022 127.004 88.0098 128.713 88.0098C130.635 88.0098 131.942 88.7461 132.636 90.2188C133.093 89.5586 133.686 89.0254 134.414 88.6191C135.15 88.2129 136.017 88.0098 137.016 88.0098C140.029 88.0098 141.561 89.6051 141.612 92.7959V102H139.263V92.9355C139.263 91.9538 139.039 91.2217 138.59 90.7393C138.142 90.2484 137.388 90.0029 136.331 90.0029C135.459 90.0029 134.735 90.2653 134.16 90.79C133.584 91.3063 133.25 92.0046 133.157 92.8848V102H130.795V92.999C130.795 91.0016 129.818 90.0029 127.863 90.0029C126.322 90.0029 125.269 90.6589 124.702 91.9707V102H122.353V88.2637H124.575ZM153.647 102C153.511 101.729 153.401 101.247 153.317 100.553C152.225 101.687 150.922 102.254 149.407 102.254C148.053 102.254 146.94 101.873 146.068 101.111C145.205 100.341 144.773 99.3678 144.773 98.1914C144.773 96.7611 145.315 95.6523 146.398 94.8652C147.49 94.0697 149.022 93.6719 150.994 93.6719H153.279V92.5928C153.279 91.7718 153.033 91.1201 152.542 90.6377C152.052 90.1468 151.328 89.9014 150.372 89.9014C149.534 89.9014 148.831 90.113 148.264 90.5361C147.697 90.9593 147.414 91.4714 147.414 92.0723H145.052C145.052 91.3867 145.293 90.7266 145.776 90.0918C146.267 89.4486 146.927 88.9408 147.756 88.5684C148.594 88.196 149.512 88.0098 150.511 88.0098C152.094 88.0098 153.334 88.4076 154.231 89.2031C155.128 89.9902 155.594 91.0778 155.627 92.4658V98.7881C155.627 100.049 155.788 101.052 156.11 101.797V102H153.647ZM149.749 100.21C150.486 100.21 151.184 100.02 151.844 99.6387C152.504 99.2578 152.983 98.7627 153.279 98.1533V95.335H151.438C148.56 95.335 147.122 96.1771 147.122 97.8613C147.122 98.5977 147.367 99.1732 147.858 99.5879C148.349 100.003 148.979 100.21 149.749 100.21ZM162.496 84.9375V88.2637H165.06V90.0791H162.496V98.5977C162.496 99.1478 162.61 99.5625 162.838 99.8418C163.067 100.113 163.456 100.248 164.006 100.248C164.277 100.248 164.65 100.197 165.123 100.096V102C164.506 102.169 163.905 102.254 163.321 102.254C162.271 102.254 161.48 101.937 160.947 101.302C160.414 100.667 160.147 99.7656 160.147 98.5977V90.0791H157.646V88.2637H160.147V84.9375H162.496ZM173.515 102.254C171.653 102.254 170.138 101.645 168.97 100.426C167.802 99.1986 167.218 97.5609 167.218 95.5127V95.0811C167.218 93.7184 167.476 92.5039 167.993 91.4375C168.517 90.3626 169.245 89.5247 170.176 88.9238C171.116 88.3145 172.131 88.0098 173.223 88.0098C175.009 88.0098 176.397 88.598 177.387 89.7744C178.377 90.9508 178.872 92.6351 178.872 94.8271V95.8047H169.567C169.601 97.1589 169.994 98.2549 170.747 99.0928C171.509 99.9222 172.474 100.337 173.642 100.337C174.471 100.337 175.174 100.168 175.749 99.8291C176.325 99.4906 176.829 99.042 177.26 98.4834L178.695 99.6006C177.544 101.369 175.817 102.254 173.515 102.254ZM173.223 89.9395C172.275 89.9395 171.48 90.2865 170.836 90.9805C170.193 91.666 169.795 92.6309 169.643 93.875H176.524V93.6973C176.456 92.5039 176.135 91.5814 175.559 90.9297C174.984 90.2695 174.205 89.9395 173.223 89.9395ZM181.031 95.0176C181.031 92.9102 181.53 91.2174 182.529 89.9395C183.527 88.653 184.835 88.0098 186.452 88.0098C188.06 88.0098 189.333 88.5599 190.273 89.6602V82.5H192.622V102H190.463L190.349 100.527C189.41 101.678 188.102 102.254 186.426 102.254C184.835 102.254 183.536 101.602 182.529 100.299C181.53 98.9954 181.031 97.2943 181.031 95.1953V95.0176ZM183.379 95.2842C183.379 96.8415 183.701 98.0602 184.344 98.9404C184.987 99.8206 185.876 100.261 187.01 100.261C188.5 100.261 189.587 99.5921 190.273 98.2549V91.9453C189.57 90.6504 188.491 90.0029 187.036 90.0029C185.885 90.0029 184.987 90.4473 184.344 91.3359C183.701 92.2246 183.379 93.5407 183.379 95.2842ZM207.259 98.8135L210.662 88.2637H213.061L208.135 102H206.345L201.369 88.2637H203.768L207.259 98.8135ZM217.872 102H215.524V88.2637H217.872V102ZM215.333 84.6201C215.333 84.2393 215.448 83.9176 215.676 83.6553C215.913 83.3929 216.26 83.2617 216.717 83.2617C217.174 83.2617 217.521 83.3929 217.758 83.6553C217.995 83.9176 218.114 84.2393 218.114 84.6201C218.114 85.001 217.995 85.3184 217.758 85.5723C217.521 85.8262 217.174 85.9531 216.717 85.9531C216.26 85.9531 215.913 85.8262 215.676 85.5723C215.448 85.3184 215.333 85.001 215.333 84.6201ZM221.072 95.0176C221.072 92.9102 221.571 91.2174 222.57 89.9395C223.568 88.653 224.876 88.0098 226.493 88.0098C228.101 88.0098 229.374 88.5599 230.314 89.6602V82.5H232.663V102H230.504L230.39 100.527C229.451 101.678 228.143 102.254 226.467 102.254C224.876 102.254 223.577 101.602 222.57 100.299C221.571 98.9954 221.072 97.2943 221.072 95.1953V95.0176ZM223.42 95.2842C223.42 96.8415 223.742 98.0602 224.385 98.9404C225.028 99.8206 225.917 100.261 227.051 100.261C228.541 100.261 229.628 99.5921 230.314 98.2549V91.9453C229.611 90.6504 228.532 90.0029 227.077 90.0029C225.926 90.0029 225.028 90.4473 224.385 91.3359C223.742 92.2246 223.42 93.5407 223.42 95.2842ZM242.019 102.254C240.157 102.254 238.642 101.645 237.474 100.426C236.306 99.1986 235.722 97.5609 235.722 95.5127V95.0811C235.722 93.7184 235.98 92.5039 236.497 91.4375C237.021 90.3626 237.749 89.5247 238.68 88.9238C239.62 88.3145 240.635 88.0098 241.727 88.0098C243.513 88.0098 244.901 88.598 245.891 89.7744C246.881 90.9508 247.376 92.6351 247.376 94.8271V95.8047H238.071C238.105 97.1589 238.498 98.2549 239.251 99.0928C240.013 99.9222 240.978 100.337 242.146 100.337C242.975 100.337 243.678 100.168 244.253 99.8291C244.829 99.4906 245.332 99.042 245.764 98.4834L247.199 99.6006C246.048 101.369 244.321 102.254 242.019 102.254ZM241.727 89.9395C240.779 89.9395 239.984 90.2865 239.34 90.9805C238.697 91.666 238.299 92.6309 238.147 93.875H245.028V93.6973C244.96 92.5039 244.638 91.5814 244.063 90.9297C243.487 90.2695 242.709 89.9395 241.727 89.9395ZM249.484 95.0049C249.484 93.6592 249.746 92.4489 250.271 91.374C250.804 90.2992 251.54 89.4697 252.48 88.8857C253.428 88.3018 254.507 88.0098 255.717 88.0098C257.588 88.0098 259.098 88.6572 260.249 89.9521C261.409 91.2471 261.989 92.9694 261.989 95.1191V95.2842C261.989 96.6214 261.731 97.8232 261.214 98.8896C260.706 99.9476 259.974 100.773 259.018 101.365C258.07 101.958 256.978 102.254 255.743 102.254C253.881 102.254 252.37 101.606 251.21 100.312C250.059 99.0166 249.484 97.3027 249.484 95.1699V95.0049ZM251.845 95.2842C251.845 96.8076 252.196 98.0306 252.899 98.9531C253.61 99.8757 254.558 100.337 255.743 100.337C256.936 100.337 257.884 99.8714 258.586 98.9404C259.289 98.001 259.64 96.6891 259.64 95.0049C259.64 93.4984 259.28 92.2796 258.561 91.3486C257.85 90.4092 256.902 89.9395 255.717 89.9395C254.558 89.9395 253.622 90.4007 252.912 91.3232C252.201 92.2458 251.845 93.5661 251.845 95.2842ZM105.164 130.337C106.001 130.337 106.734 130.083 107.36 129.575C107.986 129.067 108.333 128.433 108.401 127.671H110.622C110.58 128.458 110.309 129.207 109.81 129.918C109.311 130.629 108.642 131.196 107.804 131.619C106.975 132.042 106.095 132.254 105.164 132.254C103.293 132.254 101.803 131.632 100.695 130.388C99.5945 129.135 99.0444 127.425 99.0444 125.259V124.865C99.0444 123.528 99.2898 122.339 99.7807 121.298C100.272 120.257 100.974 119.449 101.888 118.873C102.811 118.298 103.898 118.01 105.151 118.01C106.691 118.01 107.969 118.471 108.985 119.394C110.009 120.316 110.555 121.514 110.622 122.986H108.401C108.333 122.098 107.995 121.37 107.385 120.803C106.784 120.227 106.039 119.939 105.151 119.939C103.957 119.939 103.031 120.371 102.371 121.234C101.719 122.089 101.393 123.329 101.393 124.954V125.398C101.393 126.981 101.719 128.2 102.371 129.055C103.022 129.91 103.953 130.337 105.164 130.337ZM112.641 125.005C112.641 123.659 112.903 122.449 113.428 121.374C113.961 120.299 114.698 119.47 115.637 118.886C116.585 118.302 117.664 118.01 118.874 118.01C120.745 118.01 122.256 118.657 123.407 119.952C124.566 121.247 125.146 122.969 125.146 125.119V125.284C125.146 126.621 124.888 127.823 124.372 128.89C123.864 129.948 123.132 130.773 122.175 131.365C121.227 131.958 120.136 132.254 118.9 132.254C117.038 132.254 115.527 131.606 114.368 130.312C113.217 129.017 112.641 127.303 112.641 125.17V125.005ZM115.002 125.284C115.002 126.808 115.354 128.031 116.056 128.953C116.767 129.876 117.715 130.337 118.9 130.337C120.093 130.337 121.041 129.871 121.744 128.94C122.446 128.001 122.797 126.689 122.797 125.005C122.797 123.498 122.438 122.28 121.718 121.349C121.007 120.409 120.059 119.939 118.874 119.939C117.715 119.939 116.78 120.401 116.069 121.323C115.358 122.246 115.002 123.566 115.002 125.284ZM130.3 118.264L130.364 119.787C131.371 118.602 132.729 118.01 134.439 118.01C136.36 118.01 137.668 118.746 138.362 120.219C138.819 119.559 139.411 119.025 140.139 118.619C140.875 118.213 141.743 118.01 142.742 118.01C145.755 118.01 147.287 119.605 147.337 122.796V132H144.989V122.936C144.989 121.954 144.764 121.222 144.316 120.739C143.867 120.248 143.114 120.003 142.056 120.003C141.184 120.003 140.461 120.265 139.885 120.79C139.31 121.306 138.975 122.005 138.882 122.885V132H136.521V122.999C136.521 121.002 135.543 120.003 133.588 120.003C132.048 120.003 130.994 120.659 130.427 121.971V132H128.079V118.264H130.3ZM153.444 132H151.095V118.264H153.444V132ZM150.905 114.62C150.905 114.239 151.019 113.918 151.247 113.655C151.484 113.393 151.831 113.262 152.289 113.262C152.746 113.262 153.093 113.393 153.33 113.655C153.567 113.918 153.685 114.239 153.685 114.62C153.685 115.001 153.567 115.318 153.33 115.572C153.093 115.826 152.746 115.953 152.289 115.953C151.831 115.953 151.484 115.826 151.247 115.572C151.019 115.318 150.905 115.001 150.905 114.62ZM159.436 118.264L159.512 119.99C160.562 118.67 161.933 118.01 163.625 118.01C166.528 118.01 167.993 119.647 168.018 122.923V132H165.669V122.91C165.661 121.92 165.432 121.188 164.984 120.714C164.544 120.24 163.854 120.003 162.914 120.003C162.153 120.003 161.484 120.206 160.909 120.612C160.333 121.019 159.885 121.552 159.563 122.212V132H157.214V118.264H159.436ZM171.001 125.018C171.001 122.876 171.497 121.175 172.487 119.914C173.477 118.645 174.789 118.01 176.422 118.01C178.098 118.01 179.406 118.602 180.345 119.787L180.459 118.264H182.605V131.67C182.605 133.447 182.076 134.848 181.018 135.872C179.969 136.896 178.555 137.408 176.778 137.408C175.788 137.408 174.818 137.197 173.871 136.773C172.923 136.35 172.199 135.771 171.7 135.034L172.918 133.625C173.926 134.869 175.157 135.491 176.613 135.491C177.755 135.491 178.644 135.17 179.279 134.526C179.922 133.883 180.244 132.978 180.244 131.81V130.629C179.304 131.712 178.022 132.254 176.397 132.254C174.789 132.254 173.485 131.606 172.487 130.312C171.497 129.017 171.001 127.252 171.001 125.018ZM173.363 125.284C173.363 126.833 173.68 128.052 174.315 128.94C174.95 129.821 175.838 130.261 176.981 130.261C178.462 130.261 179.55 129.588 180.244 128.242V121.971C179.524 120.659 178.445 120.003 177.006 120.003C175.864 120.003 174.971 120.447 174.328 121.336C173.684 122.225 173.363 123.541 173.363 125.284ZM200.607 128.356C200.607 127.722 200.366 127.231 199.883 126.884C199.409 126.528 198.576 126.224 197.382 125.97C196.197 125.716 195.254 125.411 194.551 125.056C193.857 124.7 193.341 124.277 193.002 123.786C192.672 123.295 192.507 122.711 192.507 122.034C192.507 120.909 192.981 119.956 193.929 119.178C194.886 118.399 196.104 118.01 197.585 118.01C199.143 118.01 200.404 118.412 201.369 119.216C202.342 120.02 202.829 121.048 202.829 122.301H200.467C200.467 121.658 200.192 121.103 199.642 120.638C199.1 120.172 198.415 119.939 197.585 119.939C196.731 119.939 196.062 120.126 195.58 120.498C195.097 120.87 194.856 121.357 194.856 121.958C194.856 122.525 195.08 122.952 195.529 123.24C195.977 123.528 196.786 123.803 197.954 124.065C199.13 124.328 200.082 124.641 200.81 125.005C201.538 125.369 202.075 125.809 202.422 126.325C202.778 126.833 202.956 127.455 202.956 128.191C202.956 129.419 202.465 130.405 201.483 131.149C200.501 131.886 199.227 132.254 197.662 132.254C196.561 132.254 195.588 132.059 194.742 131.67C193.895 131.281 193.231 130.739 192.748 130.045C192.275 129.342 192.038 128.585 192.038 127.772H194.386C194.428 128.56 194.742 129.186 195.326 129.651C195.918 130.108 196.697 130.337 197.662 130.337C198.55 130.337 199.261 130.159 199.794 129.804C200.336 129.44 200.607 128.957 200.607 128.356ZM205.393 125.005C205.393 123.659 205.655 122.449 206.18 121.374C206.713 120.299 207.45 119.47 208.389 118.886C209.337 118.302 210.416 118.01 211.626 118.01C213.497 118.01 215.008 118.657 216.159 119.952C217.318 121.247 217.898 122.969 217.898 125.119V125.284C217.898 126.621 217.64 127.823 217.123 128.89C216.616 129.948 215.884 130.773 214.927 131.365C213.979 131.958 212.887 132.254 211.652 132.254C209.79 132.254 208.279 131.606 207.12 130.312C205.969 129.017 205.393 127.303 205.393 125.17V125.005ZM207.754 125.284C207.754 126.808 208.106 128.031 208.808 128.953C209.519 129.876 210.467 130.337 211.652 130.337C212.845 130.337 213.793 129.871 214.496 128.94C215.198 128.001 215.549 126.689 215.549 125.005C215.549 123.498 215.19 122.28 214.47 121.349C213.759 120.409 212.811 119.939 211.626 119.939C210.467 119.939 209.532 120.401 208.821 121.323C208.11 122.246 207.754 123.566 207.754 125.284ZM220.221 125.005C220.221 123.659 220.484 122.449 221.008 121.374C221.541 120.299 222.278 119.47 223.217 118.886C224.165 118.302 225.244 118.01 226.455 118.01C228.325 118.01 229.836 118.657 230.987 119.952C232.146 121.247 232.726 122.969 232.726 125.119V125.284C232.726 126.621 232.468 127.823 231.952 128.89C231.444 129.948 230.712 130.773 229.755 131.365C228.807 131.958 227.716 132.254 226.48 132.254C224.618 132.254 223.107 131.606 221.948 130.312C220.797 129.017 220.221 127.303 220.221 125.17V125.005ZM222.582 125.284C222.582 126.808 222.934 128.031 223.636 128.953C224.347 129.876 225.295 130.337 226.48 130.337C227.673 130.337 228.621 129.871 229.324 128.94C230.026 128.001 230.377 126.689 230.377 125.005C230.377 123.498 230.018 122.28 229.298 121.349C228.587 120.409 227.639 119.939 226.455 119.939C225.295 119.939 224.36 120.401 223.649 121.323C222.938 122.246 222.582 123.566 222.582 125.284ZM237.893 118.264L237.969 119.99C239.019 118.67 240.39 118.01 242.082 118.01C244.985 118.01 246.45 119.647 246.475 122.923V132H244.126V122.91C244.118 121.92 243.889 121.188 243.441 120.714C243.001 120.24 242.311 120.003 241.372 120.003C240.61 120.003 239.941 120.206 239.366 120.612C238.79 121.019 238.342 121.552 238.02 122.212V132H235.671V118.264H237.893Z" fill="#B9B9B9"/>
</svg>
