<?xml version="1.0" encoding="UTF-8" standalone="no"?>
<svg
   xmlns:dc="http://purl.org/dc/elements/1.1/"
   xmlns:cc="http://creativecommons.org/ns#"
   xmlns:rdf="http://www.w3.org/1999/02/22-rdf-syntax-ns#"
   xmlns:svg="http://www.w3.org/2000/svg"
   xmlns="http://www.w3.org/2000/svg"
   xmlns:sodipodi="http://sodipodi.sourceforge.net/DTD/sodipodi-0.dtd"
   xmlns:inkscape="http://www.inkscape.org/namespaces/inkscape"
   width="166"
   height="30"
   viewBox="0 0 166 30"
   fill="none"
   version="1.1"
   id="svg11"
   sodipodi:docname="customer_logo3.svg"
   inkscape:version="0.92.4 (5da689c313, 2019-01-14)">
  <metadata
     id="metadata15">
    <rdf:RDF>
      <cc:Work
         rdf:about="">
        <dc:format>image/svg+xml</dc:format>
        <dc:type
           rdf:resource="http://purl.org/dc/dcmitype/StillImage" />
      </cc:Work>
    </rdf:RDF>
  </metadata>
  <sodipodi:namedview
     pagecolor="#ffffff"
     bordercolor="#666666"
     borderopacity="1"
     objecttolerance="10"
     gridtolerance="10"
     guidetolerance="10"
     inkscape:pageopacity="0"
     inkscape:pageshadow="2"
     inkscape:window-width="3840"
     inkscape:window-height="2066"
     id="namedview13"
     showgrid="false"
     inkscape:zoom="6.6791773"
     inkscape:cx="33.64149"
     inkscape:cy="45.713743"
     inkscape:window-x="-11"
     inkscape:window-y="-11"
     inkscape:window-maximized="1"
     inkscape:current-layer="g4" />
  <g
     clip-path="url(#clip0)"
     id="g4">
    <path
       d="m 148.614,0.0107422 c -5.257,0 -10.654,2.0093378 -13.458,5.5607478 -1.565,-2.8972 -4.439,-4.36915 -7.383,-4.36915 H 106.862 V 21.0388 L 97.5159,1.20234 h -7.1028 c -3.386258,8.827926 -3.386258,8.827926 -3.386258,8.827926 C 199.65137,53.214001 82.750845,29.463902 85.0626,29.1463 l 2.0794,-4.8131 h 13.925 l 2.22,4.8131 h 10.584 V 18.235 h 7.593 l 7.103,10.9113 h 8.295 l -8.131,-11.7524 c 0,0 1.729,-0.1402 3.061,-0.9579 0.794,7.8972 8.458,13.5981 16.845,13.5981 9.346,0 16.963,-6.7056 16.963,-15 C 165.577,6.85653 158.731,0.0107422 148.614,0.0107422 Z M 89.5252,19.0528 94.0112,8.84251 98.5673,19.0528 Z M 124.899,12.9313 H 113.894 V 6.45935 h 11.005 c 5.164,0 4.72,6.47195 0,6.47195 z m 23.785,11.4486 c -5.21,0.0701 -9.463,-3.9486 -9.463,-9.1822 0,-5.23369 3.809,-9.46266 9.463,-9.50939 5.234,-0.02337 9.463,4.25234 9.463,9.50939 0,5.257 -4.112,9.1121 -9.463,9.1822 z"
       id="path2"
       inkscape:connector-curvature="0"
       style="fill:#575757"
       sodipodi:nodetypes="scsccccccccccccccccscsccccsccsscscsc" />
    <text
       xml:space="preserve"
       style="font-style:normal;font-weight:normal;font-size:40px;line-height:1.25;font-family:sans-serif;letter-spacing:0px;word-spacing:0px;fill:#575757;fill-opacity:1;stroke:none;"
       x="0.59887594"
       y="29.700563"
       id="text19"><tspan
         sodipodi:role="line"
         id="tspan17"
         x="0.59887594"
         y="29.700563"
         style="font-style:normal;font-variant:normal;font-weight:normal;font-stretch:normal;font-family:'Arial Rounded MT Bold';-inkscape-font-specification:'Arial Rounded MT Bold, ';fill:#575757;fill-opacity:1;">BEN</tspan></text>
  </g>
  <defs
     id="defs9">
    <clipPath
       id="clip0">
      <rect
         width="165.584"
         height="30"
         fill="white"
         id="rect6" />
    </clipPath>
  </defs>
</svg>
