<?xml version="1.0" encoding="UTF-8" standalone="no"?>
<svg
   xmlns:dc="http://purl.org/dc/elements/1.1/"
   xmlns:cc="http://creativecommons.org/ns#"
   xmlns:rdf="http://www.w3.org/1999/02/22-rdf-syntax-ns#"
   xmlns:svg="http://www.w3.org/2000/svg"
   xmlns="http://www.w3.org/2000/svg"
   xmlns:sodipodi="http://sodipodi.sourceforge.net/DTD/sodipodi-0.dtd"
   xmlns:inkscape="http://www.inkscape.org/namespaces/inkscape"
   width="107"
   height="30"
   viewBox="0 0 107 30"
   fill="none"
   version="1.1"
   id="svg6"
   sodipodi:docname="customer_logo1.svg"
   inkscape:version="0.92.4 (5da689c313, 2019-01-14)">
  <metadata
     id="metadata12">
    <rdf:RDF>
      <cc:Work
         rdf:about="">
        <dc:format>image/svg+xml</dc:format>
        <dc:type
           rdf:resource="http://purl.org/dc/dcmitype/StillImage" />
      </cc:Work>
    </rdf:RDF>
  </metadata>
  <defs
     id="defs10" />
  <sodipodi:namedview
     pagecolor="#ffffff"
     bordercolor="#666666"
     borderopacity="1"
     objecttolerance="10"
     gridtolerance="10"
     guidetolerance="10"
     inkscape:pageopacity="0"
     inkscape:pageshadow="2"
     inkscape:window-width="2061"
     inkscape:window-height="975"
     id="namedview8"
     showgrid="false"
     inkscape:zoom="5.1810441"
     inkscape:cx="66.962975"
     inkscape:cy="13.648111"
     inkscape:window-x="1547"
     inkscape:window-y="541"
     inkscape:window-maximized="0"
     inkscape:current-layer="svg6" />
  <path
     d="M103.848 25.6001C103.848 26.5158 103.116 27.1798 102.106 27.1798H4.39901C3.43874 27.1798 2.81721 26.5604 2.81721 25.6001V4.44414C2.81721 3.48387 3.43874 2.86234 4.39901 2.86234H102.106C103.116 2.86234 103.848 3.52842 103.848 4.44414V25.6001ZM0.863524 0.849609C0.863524 0.877537 0.849022 29.1356 0.849022 29.1356L105.803 29.1501L105.818 0.849609H0.863524Z"
     fill="#575757"
     id="path2" />
  <path
     d="m 62.4096,13.3807 c -0.4082,0.4102 -1.0742,0.6173 -1.9755,0.6173 l -1.8076,0.0034 V 9.69621 l 2.1412,-0.00166 c 0.029,0 1.0597,-0.02486 1.6875,0.58525 0.3428,0.3325 0.5096,0.7935 0.5117,1.4119 0,0.7511 -0.1886,1.3198 -0.5573,1.6896 z M 63.2497,9.44386 C 62.2614,8.49396 60.805,8.5385 60.7449,8.54161 c 0.0207,0 -4.3725,0.00414 -4.3725,0.00414 l 0.0033,1.15294 0.9251,-0.00248 v 9.61299 h -0.9199 v 1.1571 h 3.4578 v -1.1571 h -1.212 v -4.1549 l 1.8076,-0.0025 c 1.2182,0 2.1588,-0.3221 2.7918,-0.9561 0.5925,-0.5936 0.8939,-1.4368 0.8929,-2.5069 0,-0.9364 -0.2932,-1.69156 -0.8691,-2.24576 z m -44.4548,0.23391 1.817,0.00829 c 0.0311,-8.3e-4 1.0618,-0.02487 1.6906,0.58424 0.3428,0.3336 0.5096,0.7945 0.5096,1.4109 8e-4,0.7582 -0.1864,1.328 -0.5563,1.6978 -0.406,0.4061 -1.0659,0.6132 -1.9599,0.6132 h -1.5072 l 0.0058,-4.31443 z m 5.3773,9.63173 c -0.7944,-0.0944 -0.6867,-1.1396 -0.6867,-1.1396 v -1.414 c -0.0342,-1.446 -1.4078,-1.8604 -1.4078,-1.8604 l -0.0663,-0.0332 c 0.4144,-0.1574 0.7707,-0.3791 1.0597,-0.6681 0.5936,-0.5946 0.895,-1.4388 0.894,-2.5131 0,-0.9364 -0.2921,-1.69261 -0.8681,-2.24681 -0.9872,-0.94887 -2.4447,-0.90433 -2.5058,-0.90122 0.0249,0 -4.071,-0.01765 -4.071,-0.01765 l -0.005,1.15294 0.9261,0.00332 V 19.3096 H 16.539 v 1.1571 h 3.4257 v -1.1571 h -1.1819 l 0.0049,-4.1643 1.5083,-8e-4 c 0.0321,0 0.0611,-0.0017 0.0943,-0.0017 0.0269,0.0033 0.0497,0.0075 0.0776,0.0094 2.0158,0.2507 1.7755,1.7651 1.7755,1.7651 0,0 8e-4,1.6844 0,1.6916 -0.0311,1.7414 1.3798,1.8439 1.3798,1.8439 h 1.1623 l 0.0103,-1.1426 H 24.1722 Z M 12.9186,18.7941 c -0.6588,0.5977 -1.6761,0.5148 -1.6854,0.5127 L 11.2073,19.3052 H 8.9315 l 0.00498,-4.1229 1.01827,-8e-4 h 0.95715 l 0.0207,-0.0016 c 0.0145,-9e-4 1.3529,-0.0881 2.0925,0.6111 0.3419,0.3222 0.5066,0.7666 0.4993,1.3591 -0.0083,0.7345 -0.2123,1.2887 -0.606,1.645 z M 10.8943,9.72383 c 0.03,-8.3e-4 1.0608,-0.02387 1.6885,0.58527 0.3439,0.3325 0.5097,0.7945 0.5097,1.4109 8e-4,0.752 -0.1855,1.3197 -0.5542,1.6895 -0.4113,0.4102 -1.0743,0.6174 -1.9765,0.6174 l -0.60808,0.0025 h -0.1326 v 8e-4 H 8.93751 l 0.0058,-4.30513 1.95059,-8.3e-4 z m 2.916,5.22187 c -0.2196,-0.2061 -0.4672,-0.3646 -0.7199,-0.4899 0.0932,-0.0725 0.1813,-0.1482 0.2631,-0.231 0.5936,-0.5936 0.894,-1.4368 0.8929,-2.5048 -8e-4,-0.9375 -0.2931,-1.6927 -0.8691,-2.24686 C 12.3901,8.52427 10.9326,8.56881 10.8726,8.57192 10.8933,8.57109 6.5011,8.57358 6.5011,8.57358 L 6.50193,9.72756 7.63105,9.72507 C 7.62939,11.6808 7.62177,17.286 7.61862,19.305 H 6.49779 v 1.1529 h 4.66361 c 0.2102,0.0166 1.5414,0.0787 2.5203,-0.7987 0.6495,-0.5811 0.983,-1.4212 0.9955,-2.4975 0.0103,-0.9219 -0.2818,-1.6688 -0.8671,-2.2168 z M 99.8896,8.59232 h -1.4233 -0.1916 -1.4212 -0.3688 v 1.03486 h 0.3688 c 0.8121,0 0.8463,0.62362 0.8463,0.62362 l 0.0155,8e-4 v 7.3351 L 90.7945,8.59212 h -2.2717 v 1.05867 h 0.9613 v 9.14071 h -0.0093 c 0,0 -0.0321,0.6236 -0.8453,0.6236 v 1.0369 h 0.2518 1.1705 1.615 v -1.0369 c -0.8143,0 -0.8484,-0.6236 -0.8484,-0.6236 H 90.8101 V 10.81 l 7.2077,9.642 h 1.0162 v -0.9054 h 0.0083 v -9.296 c 0,0 0.0342,-0.62363 0.8473,-0.62363 h 0.3634 V 8.59212 H 99.8896 Z M 52.7337,19.3093 V 9.65173 h 0.8805 V 8.59202 h -0.8805 -1.3259 -0.346 l -3.78,8.41968 c -0.2952,0.7003 -0.6122,0 -0.6122,0 L 42.7063,8.59202 h -0.4485 -1.3539 -0.8215 v 1.05971 h 0.8215 v 9.00807 l -0.0145,8e-4 c 0,0 -0.0321,0.6775 -0.8494,0.6775 v 1.1281 h 0.8639 0.5645 0.1906 0.5988 0.8121 v -1.1281 c -0.5687,0 -0.751,-0.3387 -0.8121,-0.5366 v -7.824 l 4.4357,9.0557 c 0.1823,0.4786 0.5138,0.0953 0.5138,0.0953 l 4.2005,-9.3168 v 8.4974 h -0.9292 v 1.1571 h 3.1864 v -1.1571 h -0.9313 z m 28.1876,-0.0248 c -2.9078,0 -5.2748,-2.2055 -5.2748,-4.9153 0,-2.7099 2.367,-4.91636 5.2748,-4.91636 2.9088,0 5.2758,2.20646 5.2758,4.91636 0,2.7098 -2.367,4.9153 -5.2758,4.9153 z M 80.9565,8.17041 c -3.6225,0 -6.5603,2.77619 -6.5603,6.19879 0,3.4236 2.9378,6.1977 6.5603,6.1977 3.6215,0 6.5582,-2.7741 6.5582,-6.1977 0,-3.4226 -2.9367,-6.19879 -6.5582,-6.19879 z M 65.4806,8.59232 v 1.89358 h 0.7687 L 66.5559,9.651 h 2.5017 v 9.6586 h -1.1882 v 1.1426 h 3.7758 V 19.3096 H 70.3845 V 9.651 h 2.3992 l 0.2682,0.8349 h 0.807 V 8.59232 Z"
     id="path4"
     inkscape:connector-curvature="0"
     style="fill:#575757"
     sodipodi:nodetypes="cccccccccccccccccccccccccccccccscccccccccccccccccccccccccccccccccccccccccccccccccccccccccccccccccccccccccccccccscccccccccccccccccccccccscccccccccccccccccccccccccccccccccccccccccssssssssssccccccccccccccccc" />
  <text
     xml:space="preserve"
     style="font-style:normal;font-weight:normal;font-size:20.48795509px;line-height:1.25;font-family:sans-serif;letter-spacing:0px;word-spacing:0px;fill:#575757;fill-opacity:1;stroke:none;stroke-width:0.51219887"
     x="24.998884"
     y="23.298244"
     id="text4528"><tspan
       sodipodi:role="line"
       id="tspan4526"
       x="24.998884"
       y="23.298244"
       style="fill:#575757;fill-opacity:1;stroke-width:0.51219887">A</tspan></text>
</svg>
