<svg width="107" height="30" viewBox="0 0 107 30" fill="none" xmlns="http://www.w3.org/2000/svg">
<path d="M103.848 25.6001C103.848 26.5158 103.116 27.1798 102.106 27.1798H4.39901C3.43874 27.1798 2.81721 26.5604 2.81721 25.6001V4.44414C2.81721 3.48387 3.43874 2.86234 4.39901 2.86234H102.106C103.116 2.86234 103.848 3.52842 103.848 4.44414V25.6001ZM0.863524 0.849609C0.863524 0.877537 0.849022 29.1356 0.849022 29.1356L105.803 29.1501L105.818 0.849609H0.863524Z" fill="#575757"/>
<path d="M62.4096 13.3807C62.0014 13.7909 61.3354 13.998 60.4341 13.998L58.6265 14.0014V9.69621L60.7677 9.69455C60.7967 9.69455 61.8274 9.66969 62.4552 10.2798C62.798 10.6123 62.9648 11.0733 62.9669 11.6917C62.9669 12.4428 62.7783 13.0115 62.4096 13.3813V13.3807ZM63.2497 9.44386C62.2614 8.49396 60.805 8.5385 60.7449 8.54161C60.7656 8.54161 56.3724 8.54575 56.3724 8.54575L56.3757 9.69869L57.3008 9.69621V19.3092H56.3809V20.4663H59.8387V19.3092H58.6267V15.1543L60.4343 15.1518C61.6525 15.1518 62.5931 14.8297 63.2261 14.1957C63.8186 13.6021 64.12 12.7589 64.119 11.6888C64.119 10.7524 63.8258 9.99724 63.2499 9.44304L63.2497 9.44386ZM18.7949 9.67777L20.6119 9.68606C20.643 9.68523 21.6737 9.66119 22.3025 10.2703C22.6453 10.6039 22.8121 11.0648 22.8121 11.6812C22.8129 12.4394 22.6257 13.0092 22.2558 13.379C21.8498 13.7851 21.1899 13.9922 20.2959 13.9922H18.7887L18.7945 9.67777H18.7949ZM24.1722 19.3095C23.3778 19.2151 23.4855 18.1699 23.4855 18.1699V16.7559C23.4513 15.3099 22.0777 14.8955 22.0777 14.8955L22.0114 14.8623C22.4258 14.7049 22.7821 14.4832 23.0711 14.1942C23.6647 13.5996 23.9661 12.7554 23.9651 11.6811C23.9651 10.7447 23.673 9.98849 23.097 9.43429C22.1098 8.48542 20.6523 8.52996 20.5912 8.53307C20.6161 8.53307 16.5202 8.51542 16.5202 8.51542L16.5152 9.66836L17.4413 9.67168V19.3096H16.539V20.4667H19.9647V19.3096H18.7828L18.7877 15.1453L20.296 15.1445C20.3281 15.1445 20.3571 15.1428 20.3903 15.1428C20.4172 15.1461 20.44 15.1503 20.4679 15.1522C22.4837 15.4029 22.2434 16.9173 22.2434 16.9173C22.2434 16.9173 22.2442 18.6017 22.2434 18.6089C22.2123 20.3503 23.6232 20.4528 23.6232 20.4528H24.7855L24.7958 19.3102H24.1722V19.3095ZM12.9186 18.7941C12.2598 19.3918 11.2425 19.3089 11.2332 19.3068L11.2073 19.3052H8.9315L8.93648 15.1823L9.95475 15.1815H10.9119L10.9326 15.1799C10.9471 15.179 12.2855 15.0918 13.0251 15.791C13.367 16.1132 13.5317 16.5576 13.5244 17.1501C13.5161 17.8846 13.3121 18.4388 12.9184 18.7951L12.9186 18.7941ZM10.8943 9.72383C10.9243 9.723 11.9551 9.69996 12.5828 10.3091C12.9267 10.6416 13.0925 11.1036 13.0925 11.72C13.0933 12.472 12.907 13.0397 12.5383 13.4095C12.127 13.8197 11.464 14.0269 10.5618 14.0269L9.95372 14.0294H9.82112V14.0302H8.93751L8.94331 9.72507L10.8939 9.72424L10.8943 9.72383ZM13.8103 14.9457C13.5907 14.7396 13.3431 14.5811 13.0904 14.4558C13.1836 14.3833 13.2717 14.3076 13.3535 14.2248C13.9471 13.6312 14.2475 12.788 14.2464 11.72C14.2456 10.7825 13.9533 10.0273 13.3773 9.47314C12.3901 8.52427 10.9326 8.56881 10.8726 8.57192C10.8933 8.57109 6.5011 8.57358 6.5011 8.57358L6.50193 9.72756L7.63105 9.72507C7.62939 11.6808 7.62177 17.286 7.61862 19.305H6.49779V20.4579H11.1614C11.3716 20.4745 12.7028 20.5366 13.6817 19.6592C14.3312 19.0781 14.6647 18.238 14.6772 17.1617C14.6875 16.2398 14.3954 15.4929 13.8101 14.9449L13.8103 14.9457ZM99.8896 8.59232H98.4663H98.2747H96.8535H96.4847V9.62718H96.8535C97.6656 9.62718 97.6998 10.2508 97.6998 10.2508L97.7153 10.2516V17.5867L90.7945 8.59212H88.5228V9.65079H89.4841V18.7915H89.4748C89.4748 18.7915 89.4427 19.4151 88.6295 19.4151V20.452H88.8813H90.0518H91.6668V19.4151C90.8525 19.4151 90.8184 18.7915 90.8184 18.7915H90.8101V10.81L98.0178 20.452H99.034V19.5466H99.0423V10.2506C99.0423 10.2506 99.0765 9.62697 99.8896 9.62697H100.253V8.59212H99.8896L99.8896 8.59232ZM52.7337 19.3093V9.65173H53.6142V8.59202H52.7337H51.4078H51.0618L47.2818 17.0117C46.9866 17.712 46.6696 17.0117 46.6696 17.0117L42.7063 8.59202H42.2578H40.9039H40.0824V9.65173H40.9039V18.6598L40.8894 18.6606C40.8894 18.6606 40.8573 19.3381 40.04 19.3381V20.4662H40.9039H41.4684H41.659H42.2578H43.0699V19.3381C42.5012 19.3381 42.3189 18.9994 42.2578 18.8015V10.9775L46.6935 20.0332C46.8758 20.5118 47.2073 20.1285 47.2073 20.1285L51.4078 10.8117V19.3091H50.4786V20.4662H53.665V19.3091H52.7337L52.7337 19.3093ZM80.9213 19.2845C78.0135 19.2845 75.6465 17.079 75.6465 14.3692C75.6465 11.6593 78.0135 9.45284 80.9213 9.45284C83.8301 9.45284 86.1971 11.6593 86.1971 14.3692C86.1971 17.079 83.8301 19.2845 80.9213 19.2845ZM80.9565 8.17041C77.334 8.17041 74.3962 10.9466 74.3962 14.3692C74.3962 17.7928 77.334 20.5669 80.9565 20.5669C84.578 20.5669 87.5147 17.7928 87.5147 14.3692C87.5147 10.9466 84.578 8.17041 80.9565 8.17041ZM32.2122 19.2845C29.3044 19.2845 26.9364 17.079 26.9364 14.3692C26.9364 11.6593 29.3044 9.45284 32.2122 9.45284C35.1209 9.45284 37.4869 11.6593 37.4869 14.3692C37.4869 17.079 35.1209 19.2845 32.2122 19.2845ZM32.2453 8.17041C28.6238 8.17041 25.6871 10.9466 25.6871 14.3692C25.6871 17.7928 28.6238 20.5669 32.2453 20.5669C35.8678 20.5669 38.8035 17.7928 38.8035 14.3692C38.8035 10.9466 35.8678 8.17041 32.2453 8.17041ZM65.4806 8.59232V10.4859H66.2493L66.5559 9.651H69.0576V19.3096H67.8694V20.4522H71.6452V19.3096H70.3845V9.651H72.7837L73.0519 10.4859H73.8589V8.59232H65.4806Z" fill="#575757"/>
</svg>
