<?xml version="1.0" encoding="UTF-8" standalone="no"?>
<svg
   xmlns:dc="http://purl.org/dc/elements/1.1/"
   xmlns:cc="http://creativecommons.org/ns#"
   xmlns:rdf="http://www.w3.org/1999/02/22-rdf-syntax-ns#"
   xmlns:svg="http://www.w3.org/2000/svg"
   xmlns="http://www.w3.org/2000/svg"
   xmlns:sodipodi="http://sodipodi.sourceforge.net/DTD/sodipodi-0.dtd"
   xmlns:inkscape="http://www.inkscape.org/namespaces/inkscape"
   width="70.831131"
   height="22.064241"
   viewBox="0 0 77.914244 24.270666"
   version="1.1"
   id="svg19"
   sodipodi:docname="customer_logo2.svg"
   style="fill:none"
   inkscape:version="0.92.4 (5da689c313, 2019-01-14)">
  <metadata
     id="metadata23">
    <rdf:RDF>
      <cc:Work
         rdf:about="">
        <dc:format>image/svg+xml</dc:format>
        <dc:type
           rdf:resource="http://purl.org/dc/dcmitype/StillImage" />
        <dc:title></dc:title>
      </cc:Work>
    </rdf:RDF>
  </metadata>
  <sodipodi:namedview
     pagecolor="#ffffff"
     bordercolor="#666666"
     borderopacity="1"
     objecttolerance="10"
     gridtolerance="10"
     guidetolerance="10"
     inkscape:pageopacity="0"
     inkscape:pageshadow="2"
     inkscape:window-width="2181"
     inkscape:window-height="1471"
     id="namedview21"
     showgrid="false"
     fit-margin-top="0"
     fit-margin-left="0"
     fit-margin-right="0"
     fit-margin-bottom="0"
     inkscape:zoom="9.9240506"
     inkscape:cx="59.670281"
     inkscape:cy="11.821478"
     inkscape:window-x="549"
     inkscape:window-y="203"
     inkscape:window-maximized="0"
     inkscape:current-layer="svg19" />
  <g
     clip-path="url(#clip0)"
     id="g12"
     transform="translate(-0.86556044,-7.40039)">
    <path
       d="m 54.6684,18.4614 c 1.9894,0 3.5809,-1.5915 3.5809,-3.5809 0,-1.9894 -1.5915,-3.5809 -3.5809,-3.5809 -1.9894,0 -3.5809,1.5915 -3.5809,3.5809 0.0796,1.9894 1.6711,3.5809 3.5809,3.5809 z m -7.4005,-3.5809 c 0,-4.1379 3.3422,-7.48011 7.4801,-7.48011 4.1379,0 7.4801,3.34221 7.4801,7.48011 0,4.1379 -3.3422,7.4801 -7.4801,7.4801 -4.1379,0 -7.4801,-3.3422 -7.4801,-7.4801 z"
       id="path4"
       inkscape:connector-curvature="0"
       style="fill:#575757" />
    <path
       d="m 74.7215,14.8805 c 0,-1.9098 -1.5915,-3.5013 -3.5013,-3.5013 -1.9098,0 -3.5014,1.5915 -3.5014,3.5013 0,0.9549 0,7.1618 0,7.1618 -1.9893,0 -3.8992,0 -3.8992,0 0,0 0,-5.0928 0,-7.1618 0,-4.1379 3.3422,-7.48011 7.4801,-7.48011 4.138,0 7.4802,3.34221 7.4802,7.48011 0,2.069 0,7.1618 0,7.1618 0,0 -1.9099,0 -3.8993,0 -0.1591,0 -0.1591,-6.2069 -0.1591,-7.1618 z"
       id="path6"
       inkscape:connector-curvature="0"
       style="fill:#575757" />
    <path
       d="m 38.1167,12.3341 c -0.557,-0.3979 -0.3979,-1.0345 0.557,-1.2732 1.1937,-0.3183 3.2626,-0.0796 5.0133,0.7161 L 45.5172,9.23062 C 44.7215,8.59401 42.9708,7.71868 40.4244,7.55953 c 0,0 -4.2971,-0.55703 -6.0477,2.70557 0,0 -1.512,3.0239 1.5119,4.9337 1.8302,1.114 5.0133,1.5915 6.0477,2.069 0.7958,0.4774 0.5571,1.3527 -0.6366,1.5915 -2.0689,0.4774 -4.7745,-0.7162 -5.6498,-1.3528 l -1.9098,2.626 c 1.2732,0.9549 2.8647,1.8302 5.4111,2.2281 0,0 4.0583,0.7162 6.2865,-2.069 0.3978,-0.4774 2.2281,-3.8992 -1.4324,-5.8886 -1.9098,-1.0345 -4.9337,-1.5119 -5.8886,-2.0689 z"
       id="path8"
       inkscape:connector-curvature="0"
       style="fill:#575757" />
    <path
       d="m 19.8143,24.9071 c 0.1592,0.0796 1.9894,1.3528 3.7401,1.3528 4.2971,0.0795 4.5358,-4.3767 4.5358,-5.4112 -0.7958,0.8754 -2.4669,1.4324 -3.5013,1.4324 -4.138,0 -7.4006,-3.183 -7.4006,-7.321 0,-2.0689 0,-7.24135 0,-7.24135 0,0 1.9098,0 3.8992,0 0,0 0,6.36605 0,7.24135 0,1.9098 1.5915,3.5014 3.5014,3.5014 1.9098,0 3.5013,-1.5916 3.5013,-3.5014 0,-0.7957 0,-7.24135 0,-7.24135 1.9894,0 3.8992,0 3.8992,0 v 7.24135 c 0,6.4457 0.3183,13.0504 -5.9682,14.5624 -4.6949,1.114 -8.0371,-1.8303 -8.2758,-1.9894 z"
       id="path10"
       inkscape:connector-curvature="0"
       style="fill:#575757" />
  </g>
  <defs
     id="defs17">
    <clipPath
       id="clip0">
      <rect
         width="78.7798"
         height="30"
         id="rect14"
         x="0"
         y="0"
         style="fill:#ffffff" />
    </clipPath>
  </defs>
  <path
     inkscape:connector-curvature="0"
     style="fill:#575757"
     d="M 4.5011637,9.806385 C 3.4004457,8.14924 3.8455977,5.942966 5.5027267,4.842259 7.1598637,3.741545 9.3661446,4.186671 10.466863,5.843817 c 1.100719,1.657145 0.655566,3.86342 -1.0015734,4.964132 L 6.4824457,12.789231 Z M 9.3321646,24.270666 12.646458,22.06923 8.6398617,16.037249 C 9.7667186,15.288763 10.893569,14.540281 11.622708,14.055968 15.069561,11.766481 16.00437,7.133325 13.71485,3.686421 11.425385,0.2396012 6.7921857,-0.6952148 3.3453327,1.5942722 -0.10148667,3.883738 -1.036287,8.51696 1.2531782,11.96378 c 1.1447605,1.723451 4.1386985,6.230864 4.1386985,6.230864 z"
     id="path2" />
</svg>
