<?xml version="1.0" encoding="UTF-8" standalone="no"?>
<svg
   xmlns:dc="http://purl.org/dc/elements/1.1/"
   xmlns:cc="http://creativecommons.org/ns#"
   xmlns:rdf="http://www.w3.org/1999/02/22-rdf-syntax-ns#"
   xmlns:svg="http://www.w3.org/2000/svg"
   xmlns="http://www.w3.org/2000/svg"
   xmlns:sodipodi="http://sodipodi.sourceforge.net/DTD/sodipodi-0.dtd"
   xmlns:inkscape="http://www.inkscape.org/namespaces/inkscape"
   width="206.89723"
   height="35.689552"
   viewBox="0 0 206.89723 35.689552"
   version="1.1"
   id="svg13"
   sodipodi:docname="customer_logo4.svg"
   style="fill:none"
   inkscape:version="0.92.4 (5da689c313, 2019-01-14)">
  <metadata
     id="metadata17">
    <rdf:RDF>
      <cc:Work
         rdf:about="">
        <dc:format>image/svg+xml</dc:format>
        <dc:type
           rdf:resource="http://purl.org/dc/dcmitype/StillImage" />
        <dc:title></dc:title>
      </cc:Work>
    </rdf:RDF>
  </metadata>
  <sodipodi:namedview
     pagecolor="#ffffff"
     bordercolor="#666666"
     borderopacity="1"
     objecttolerance="10"
     gridtolerance="10"
     guidetolerance="10"
     inkscape:pageopacity="0"
     inkscape:pageshadow="2"
     inkscape:window-width="2148"
     inkscape:window-height="1376"
     id="namedview15"
     showgrid="false"
     fit-margin-bottom="-2.7755576e-17"
     fit-margin-top="0"
     fit-margin-left="0"
     fit-margin-right="0"
     inkscape:zoom="7.5384615"
     inkscape:cx="114.76524"
     inkscape:cy="37.269729"
     inkscape:window-x="0"
     inkscape:window-y="0"
     inkscape:window-maximized="0"
     inkscape:current-layer="svg13" />
  <defs
     id="defs11">
    <clipPath
       id="clip0">
      <rect
         width="207.241"
         height="30"
         id="rect8"
         x="0"
         y="0"
         style="fill:#ffffff" />
    </clipPath>
  </defs>
  <g
     id="g3731"
     transform="translate(-0.137939,-5.0758531)">
    <g
       transform="translate(0,4.7653061)"
       id="g6"
       clip-path="url(#clip0)">
      <path
         sodipodi:nodetypes="sccssssccsscscccscccscccccccc"
         style="fill:#575757"
         inkscape:connector-curvature="0"
         id="path2"
         d="M 58.2759,29.8966 H 72.5862 V 25.5173 H 60.8621 c -1.138,0 -2.2759,-0.6207 -2.2759,-2.7931 v -0.3103 c 0,-1.8966 0.9655,-2.6552 2.2069,-2.6552 H 72.5862 V 15.3794 H 58 c -5.931,0 -8.3448,2.5862 -8.3448,6.5862 v 1.3448 c -0.0345,4.7242 2.5517,6.5862 8.6207,6.5862 z m -19.3449,0 h 8.8966 V 13.1035 h -5.1724 c -2.138,0 -3.6552,0.8966 -5.1035,2.1724 -1.6207,1.4138 -7.4827,6.5173 -7.4827,6.5173 v -8.6897 h -5.2414 c -2.9655,0 -4.4483,1 -6.1035,2.3104 C 17.5862,16.3104 0.137939,29.8966 0.137939,29.8966 H 10.6897 l 10.4482,-8.5862 v 8.5862 h 8.4483 l 9.3448,-8.5172 z" />
      <path
         style="fill:#575757"
         inkscape:connector-curvature="0"
         id="path4"
         d="m 200.241,0.310547 c -4.551,0 -11,1.379313 -17.965,3.896553 -5.793,2.13794 -11.552,4.82759 -17.759,8.7586 3.621,-1.4827 10.828,-3.17239 16.724,-3.17239 8,0 13.69,3.06899 5.276,13.79309 C 211.31,7.37951 210.621,0.310547 200.241,0.310547 Z" />
    </g>
    <text
       transform="scale(1.0946561,0.91352891)"
       id="text3724"
       y="37.63802"
       x="66.756378"
       style="font-style:normal;font-weight:normal;font-size:29.99474907px;line-height:1.25;font-family:sans-serif;letter-spacing:0px;word-spacing:0px;fill:#575757;fill-opacity:1;stroke:none;stroke-width:0.74986869"
       xml:space="preserve"><tspan
         style="font-style:normal;font-variant:normal;font-weight:normal;font-stretch:normal;font-family:'Bauhaus 93';-inkscape-font-specification:'Bauhaus 93, ';fill:#575757;fill-opacity:1;stroke-width:0.74986869"
         y="37.63802"
         x="66.756378"
         id="tspan3722"
         sodipodi:role="line">Murrray</tspan></text>
  </g>
</svg>
