<svg width="350" height="217" viewBox="0 0 350 217" fill="none" xmlns="http://www.w3.org/2000/svg">
<rect width="350" height="217" rx="5" fill="#E2E2E2"/>
<path d="M110.718 94.8369H102.961V103H100.524V84.5156H111.975V86.5215H102.961V92.8438H110.718V94.8369ZM118.043 84.5156L124.086 99.5977L130.129 84.5156H133.29V103H130.853V95.8018L131.081 88.0322L125.013 103H123.147L117.091 88.0703L117.332 95.8018V103H114.895V84.5156H118.043ZM148.042 94.4561H140.032V101.007H149.337V103H137.594V84.5156H149.21V86.5215H140.032V92.4629H148.042V94.4561ZM162.579 98.1758H154.834L153.095 103H150.581L157.64 84.5156H159.773L166.844 103H164.343L162.579 98.1758ZM155.571 96.1699H161.855L158.706 87.5244L155.571 96.1699ZM177.965 103H175.617V89.2637H177.965V103ZM175.426 85.6201C175.426 85.2393 175.54 84.9176 175.769 84.6553C176.006 84.3929 176.353 84.2617 176.81 84.2617C177.267 84.2617 177.614 84.3929 177.851 84.6553C178.088 84.9176 178.206 85.2393 178.206 85.6201C178.206 86.001 178.088 86.3184 177.851 86.5723C177.614 86.8262 177.267 86.9531 176.81 86.9531C176.353 86.9531 176.006 86.8262 175.769 86.5723C175.54 86.3184 175.426 86.001 175.426 85.6201ZM183.945 89.2637L184.008 90.7871C185.015 89.6022 186.374 89.0098 188.083 89.0098C190.005 89.0098 191.312 89.7461 192.006 91.2188C192.463 90.5586 193.056 90.0254 193.784 89.6191C194.52 89.2129 195.387 89.0098 196.386 89.0098C199.399 89.0098 200.931 90.6051 200.982 93.7959V103H198.633V93.9355C198.633 92.9538 198.409 92.2217 197.96 91.7393C197.512 91.2484 196.759 91.0029 195.701 91.0029C194.829 91.0029 194.105 91.2653 193.53 91.79C192.954 92.3063 192.62 93.0046 192.527 93.8848V103H190.165V93.999C190.165 92.0016 189.188 91.0029 187.233 91.0029C185.692 91.0029 184.639 91.6589 184.072 92.9707V103H181.723V89.2637H183.945ZM213.017 103C212.882 102.729 212.772 102.247 212.687 101.553C211.595 102.687 210.292 103.254 208.777 103.254C207.423 103.254 206.31 102.873 205.438 102.111C204.575 101.341 204.143 100.368 204.143 99.1914C204.143 97.7611 204.685 96.6523 205.768 95.8652C206.86 95.0697 208.392 94.6719 210.364 94.6719H212.649V93.5928C212.649 92.7718 212.403 92.1201 211.913 91.6377C211.422 91.1468 210.698 90.9014 209.742 90.9014C208.904 90.9014 208.201 91.113 207.634 91.5361C207.067 91.9593 206.784 92.4714 206.784 93.0723H204.422C204.422 92.3867 204.664 91.7266 205.146 91.0918C205.637 90.4486 206.297 89.9408 207.126 89.5684C207.964 89.196 208.883 89.0098 209.881 89.0098C211.464 89.0098 212.704 89.4076 213.601 90.2031C214.498 90.9902 214.964 92.0778 214.997 93.4658V99.7881C214.997 101.049 215.158 102.052 215.48 102.797V103H213.017ZM209.12 101.21C209.856 101.21 210.554 101.02 211.214 100.639C211.874 100.258 212.353 99.7627 212.649 99.1533V96.335H210.808C207.93 96.335 206.492 97.1771 206.492 98.8613C206.492 99.5977 206.737 100.173 207.228 100.588C207.719 101.003 208.349 101.21 209.12 101.21ZM218.121 96.0176C218.121 93.8763 218.616 92.1751 219.606 90.9141C220.596 89.6445 221.908 89.0098 223.541 89.0098C225.217 89.0098 226.525 89.6022 227.464 90.7871L227.579 89.2637H229.724V102.67C229.724 104.447 229.195 105.848 228.137 106.872C227.088 107.896 225.674 108.408 223.897 108.408C222.907 108.408 221.938 108.197 220.99 107.773C220.042 107.35 219.318 106.771 218.819 106.034L220.038 104.625C221.045 105.869 222.276 106.491 223.732 106.491C224.874 106.491 225.763 106.17 226.398 105.526C227.041 104.883 227.363 103.978 227.363 102.81V101.629C226.423 102.712 225.141 103.254 223.516 103.254C221.908 103.254 220.605 102.606 219.606 101.312C218.616 100.017 218.121 98.252 218.121 96.0176ZM220.482 96.2842C220.482 97.833 220.799 99.0518 221.434 99.9404C222.069 100.821 222.957 101.261 224.1 101.261C225.581 101.261 226.669 100.588 227.363 99.2422V92.9707C226.643 91.6589 225.564 91.0029 224.125 91.0029C222.983 91.0029 222.09 91.4473 221.447 92.3359C220.803 93.2246 220.482 94.5407 220.482 96.2842ZM238.979 103.254C237.117 103.254 235.602 102.645 234.434 101.426C233.266 100.199 232.682 98.5609 232.682 96.5127V96.0811C232.682 94.7184 232.94 93.5039 233.456 92.4375C233.981 91.3626 234.709 90.5247 235.64 89.9238C236.58 89.3145 237.595 89.0098 238.687 89.0098C240.473 89.0098 241.861 89.598 242.851 90.7744C243.841 91.9508 244.336 93.6351 244.336 95.8271V96.8047H235.031C235.065 98.1589 235.458 99.2549 236.211 100.093C236.973 100.922 237.938 101.337 239.106 101.337C239.935 101.337 240.638 101.168 241.213 100.829C241.789 100.491 242.292 100.042 242.724 99.4834L244.159 100.601C243.008 102.369 241.281 103.254 238.979 103.254ZM238.687 90.9395C237.739 90.9395 236.943 91.2865 236.3 91.9805C235.657 92.666 235.259 93.6309 235.107 94.875H241.988V94.6973C241.92 93.5039 241.598 92.5814 241.023 91.9297C240.447 91.2695 239.669 90.9395 238.687 90.9395ZM107.164 131.337C108.001 131.337 108.734 131.083 109.36 130.575C109.986 130.067 110.333 129.433 110.401 128.671H112.622C112.58 129.458 112.309 130.207 111.81 130.918C111.311 131.629 110.642 132.196 109.804 132.619C108.975 133.042 108.095 133.254 107.164 133.254C105.293 133.254 103.803 132.632 102.695 131.388C101.595 130.135 101.044 128.425 101.044 126.259V125.865C101.044 124.528 101.29 123.339 101.781 122.298C102.272 121.257 102.974 120.449 103.888 119.873C104.811 119.298 105.898 119.01 107.151 119.01C108.691 119.01 109.969 119.471 110.985 120.394C112.009 121.316 112.555 122.514 112.622 123.986H110.401C110.333 123.098 109.995 122.37 109.385 121.803C108.784 121.227 108.039 120.939 107.151 120.939C105.957 120.939 105.031 121.371 104.371 122.234C103.719 123.089 103.393 124.329 103.393 125.954V126.398C103.393 127.981 103.719 129.2 104.371 130.055C105.022 130.91 105.953 131.337 107.164 131.337ZM114.641 126.005C114.641 124.659 114.903 123.449 115.428 122.374C115.961 121.299 116.698 120.47 117.637 119.886C118.585 119.302 119.664 119.01 120.874 119.01C122.745 119.01 124.256 119.657 125.407 120.952C126.566 122.247 127.146 123.969 127.146 126.119V126.284C127.146 127.621 126.888 128.823 126.372 129.89C125.864 130.948 125.132 131.773 124.175 132.365C123.227 132.958 122.136 133.254 120.9 133.254C119.038 133.254 117.527 132.606 116.368 131.312C115.217 130.017 114.641 128.303 114.641 126.17V126.005ZM117.002 126.284C117.002 127.808 117.354 129.031 118.056 129.953C118.767 130.876 119.715 131.337 120.9 131.337C122.093 131.337 123.041 130.871 123.744 129.94C124.446 129.001 124.797 127.689 124.797 126.005C124.797 124.498 124.438 123.28 123.718 122.349C123.007 121.409 122.059 120.939 120.874 120.939C119.715 120.939 118.78 121.401 118.069 122.323C117.358 123.246 117.002 124.566 117.002 126.284ZM132.3 119.264L132.364 120.787C133.371 119.602 134.729 119.01 136.439 119.01C138.36 119.01 139.668 119.746 140.362 121.219C140.819 120.559 141.411 120.025 142.139 119.619C142.875 119.213 143.743 119.01 144.742 119.01C147.755 119.01 149.287 120.605 149.337 123.796V133H146.989V123.936C146.989 122.954 146.764 122.222 146.316 121.739C145.867 121.248 145.114 121.003 144.056 121.003C143.184 121.003 142.461 121.265 141.885 121.79C141.31 122.306 140.975 123.005 140.882 123.885V133H138.521V123.999C138.521 122.002 137.543 121.003 135.588 121.003C134.048 121.003 132.994 121.659 132.427 122.971V133H130.079V119.264H132.3ZM155.444 133H153.095V119.264H155.444V133ZM152.905 115.62C152.905 115.239 153.019 114.918 153.247 114.655C153.484 114.393 153.831 114.262 154.289 114.262C154.746 114.262 155.093 114.393 155.33 114.655C155.567 114.918 155.685 115.239 155.685 115.62C155.685 116.001 155.567 116.318 155.33 116.572C155.093 116.826 154.746 116.953 154.289 116.953C153.831 116.953 153.484 116.826 153.247 116.572C153.019 116.318 152.905 116.001 152.905 115.62ZM161.436 119.264L161.512 120.99C162.562 119.67 163.933 119.01 165.625 119.01C168.528 119.01 169.993 120.647 170.018 123.923V133H167.669V123.91C167.661 122.92 167.432 122.188 166.984 121.714C166.544 121.24 165.854 121.003 164.914 121.003C164.153 121.003 163.484 121.206 162.909 121.612C162.333 122.019 161.885 122.552 161.563 123.212V133H159.214V119.264H161.436ZM173.001 126.018C173.001 123.876 173.497 122.175 174.487 120.914C175.477 119.645 176.789 119.01 178.422 119.01C180.098 119.01 181.406 119.602 182.345 120.787L182.459 119.264H184.605V132.67C184.605 134.447 184.076 135.848 183.018 136.872C181.969 137.896 180.555 138.408 178.778 138.408C177.788 138.408 176.818 138.197 175.871 137.773C174.923 137.35 174.199 136.771 173.7 136.034L174.918 134.625C175.926 135.869 177.157 136.491 178.613 136.491C179.755 136.491 180.644 136.17 181.279 135.526C181.922 134.883 182.244 133.978 182.244 132.81V131.629C181.304 132.712 180.022 133.254 178.397 133.254C176.789 133.254 175.485 132.606 174.487 131.312C173.497 130.017 173.001 128.252 173.001 126.018ZM175.363 126.284C175.363 127.833 175.68 129.052 176.315 129.94C176.95 130.821 177.838 131.261 178.981 131.261C180.462 131.261 181.55 130.588 182.244 129.242V122.971C181.524 121.659 180.445 121.003 179.006 121.003C177.864 121.003 176.971 121.447 176.328 122.336C175.684 123.225 175.363 124.541 175.363 126.284ZM202.607 129.356C202.607 128.722 202.366 128.231 201.883 127.884C201.409 127.528 200.576 127.224 199.382 126.97C198.197 126.716 197.254 126.411 196.551 126.056C195.857 125.7 195.341 125.277 195.002 124.786C194.672 124.295 194.507 123.711 194.507 123.034C194.507 121.909 194.981 120.956 195.929 120.178C196.886 119.399 198.104 119.01 199.585 119.01C201.143 119.01 202.404 119.412 203.369 120.216C204.342 121.02 204.829 122.048 204.829 123.301H202.467C202.467 122.658 202.192 122.103 201.642 121.638C201.1 121.172 200.415 120.939 199.585 120.939C198.731 120.939 198.062 121.126 197.58 121.498C197.097 121.87 196.856 122.357 196.856 122.958C196.856 123.525 197.08 123.952 197.529 124.24C197.977 124.528 198.786 124.803 199.954 125.065C201.13 125.328 202.082 125.641 202.81 126.005C203.538 126.369 204.075 126.809 204.422 127.325C204.778 127.833 204.956 128.455 204.956 129.191C204.956 130.419 204.465 131.405 203.483 132.149C202.501 132.886 201.227 133.254 199.662 133.254C198.561 133.254 197.588 133.059 196.742 132.67C195.895 132.281 195.231 131.739 194.748 131.045C194.275 130.342 194.038 129.585 194.038 128.772H196.386C196.428 129.56 196.742 130.186 197.326 130.651C197.918 131.108 198.697 131.337 199.662 131.337C200.55 131.337 201.261 131.159 201.794 130.804C202.336 130.44 202.607 129.957 202.607 129.356ZM207.393 126.005C207.393 124.659 207.655 123.449 208.18 122.374C208.713 121.299 209.45 120.47 210.389 119.886C211.337 119.302 212.416 119.01 213.626 119.01C215.497 119.01 217.008 119.657 218.159 120.952C219.318 122.247 219.898 123.969 219.898 126.119V126.284C219.898 127.621 219.64 128.823 219.123 129.89C218.616 130.948 217.884 131.773 216.927 132.365C215.979 132.958 214.887 133.254 213.652 133.254C211.79 133.254 210.279 132.606 209.12 131.312C207.969 130.017 207.393 128.303 207.393 126.17V126.005ZM209.754 126.284C209.754 127.808 210.106 129.031 210.808 129.953C211.519 130.876 212.467 131.337 213.652 131.337C214.845 131.337 215.793 130.871 216.496 129.94C217.198 129.001 217.549 127.689 217.549 126.005C217.549 124.498 217.19 123.28 216.47 122.349C215.759 121.409 214.811 120.939 213.626 120.939C212.467 120.939 211.532 121.401 210.821 122.323C210.11 123.246 209.754 124.566 209.754 126.284ZM222.221 126.005C222.221 124.659 222.484 123.449 223.008 122.374C223.541 121.299 224.278 120.47 225.217 119.886C226.165 119.302 227.244 119.01 228.455 119.01C230.325 119.01 231.836 119.657 232.987 120.952C234.146 122.247 234.726 123.969 234.726 126.119V126.284C234.726 127.621 234.468 128.823 233.952 129.89C233.444 130.948 232.712 131.773 231.755 132.365C230.807 132.958 229.716 133.254 228.48 133.254C226.618 133.254 225.107 132.606 223.948 131.312C222.797 130.017 222.221 128.303 222.221 126.17V126.005ZM224.582 126.284C224.582 127.808 224.934 129.031 225.636 129.953C226.347 130.876 227.295 131.337 228.48 131.337C229.673 131.337 230.621 130.871 231.324 129.94C232.026 129.001 232.377 127.689 232.377 126.005C232.377 124.498 232.018 123.28 231.298 122.349C230.587 121.409 229.639 120.939 228.455 120.939C227.295 120.939 226.36 121.401 225.649 122.323C224.938 123.246 224.582 124.566 224.582 126.284ZM239.893 119.264L239.969 120.99C241.019 119.67 242.39 119.01 244.082 119.01C246.985 119.01 248.45 120.647 248.475 123.923V133H246.126V123.91C246.118 122.92 245.889 122.188 245.441 121.714C245.001 121.24 244.311 121.003 243.372 121.003C242.61 121.003 241.941 121.206 241.366 121.612C240.79 122.019 240.342 122.552 240.02 123.212V133H237.671V119.264H239.893Z" fill="#B9B9B9"/>
</svg>
