<svg width="350" height="217" viewBox="0 0 350 217" fill="none" xmlns="http://www.w3.org/2000/svg">
<rect width="350" height="217" rx="5" fill="#E2E2E2"/>
<path d="M67.4653 94.8369H59.7084V103H57.2709V84.5156H68.7221V86.5215H59.7084V92.8438H67.4653V94.8369ZM74.7905 84.5156L80.8334 99.5977L86.8764 84.5156H90.0375V103H87.6V95.8018L87.8286 88.0322L81.7602 103H79.894L73.8383 88.0703L74.0795 95.8018V103H71.642V84.5156H74.7905ZM104.789 94.4561H96.7787V101.007H106.084V103H94.3412V84.5156H105.957V86.5215H96.7787V92.4629H104.789V94.4561ZM119.326 98.1758H111.581L109.842 103H107.329L114.387 84.5156H116.52L123.591 103H121.09L119.326 98.1758ZM112.318 96.1699H118.602L115.454 87.5244L112.318 96.1699ZM134.712 103H132.364V89.2637H134.712V103ZM132.173 85.6201C132.173 85.2393 132.288 84.9176 132.516 84.6553C132.753 84.3929 133.1 84.2617 133.557 84.2617C134.014 84.2617 134.361 84.3929 134.598 84.6553C134.835 84.9176 134.954 85.2393 134.954 85.6201C134.954 86.001 134.835 86.3184 134.598 86.5723C134.361 86.8262 134.014 86.9531 133.557 86.9531C133.1 86.9531 132.753 86.8262 132.516 86.5723C132.288 86.3184 132.173 86.001 132.173 85.6201ZM140.692 89.2637L140.755 90.7871C141.762 89.6022 143.121 89.0098 144.831 89.0098C146.752 89.0098 148.059 89.7461 148.753 91.2188C149.21 90.5586 149.803 90.0254 150.531 89.6191C151.267 89.2129 152.135 89.0098 153.133 89.0098C156.146 89.0098 157.678 90.6051 157.729 93.7959V103H155.38V93.9355C155.38 92.9538 155.156 92.2217 154.707 91.7393C154.259 91.2484 153.506 91.0029 152.448 91.0029C151.576 91.0029 150.852 91.2653 150.277 91.79C149.701 92.3063 149.367 93.0046 149.274 93.8848V103H146.913V93.999C146.913 92.0016 145.935 91.0029 143.98 91.0029C142.44 91.0029 141.386 91.6589 140.819 92.9707V103H138.47V89.2637H140.692ZM169.764 103C169.629 102.729 169.519 102.247 169.434 101.553C168.342 102.687 167.039 103.254 165.524 103.254C164.17 103.254 163.057 102.873 162.185 102.111C161.322 101.341 160.89 100.368 160.89 99.1914C160.89 97.7611 161.432 96.6523 162.515 95.8652C163.607 95.0697 165.139 94.6719 167.111 94.6719H169.396V93.5928C169.396 92.7718 169.15 92.1201 168.66 91.6377C168.169 91.1468 167.445 90.9014 166.489 90.9014C165.651 90.9014 164.948 91.113 164.381 91.5361C163.814 91.9593 163.531 92.4714 163.531 93.0723H161.169C161.169 92.3867 161.411 91.7266 161.893 91.0918C162.384 90.4486 163.044 89.9408 163.873 89.5684C164.711 89.196 165.63 89.0098 166.628 89.0098C168.211 89.0098 169.451 89.4076 170.348 90.2031C171.245 90.9902 171.711 92.0778 171.745 93.4658V99.7881C171.745 101.049 171.905 102.052 172.227 102.797V103H169.764ZM165.867 101.21C166.603 101.21 167.301 101.02 167.961 100.639C168.622 100.258 169.1 99.7627 169.396 99.1533V96.335H167.555C164.678 96.335 163.239 97.1771 163.239 98.8613C163.239 99.5977 163.484 100.173 163.975 100.588C164.466 101.003 165.096 101.21 165.867 101.21ZM174.868 96.0176C174.868 93.8763 175.363 92.1751 176.353 90.9141C177.343 89.6445 178.655 89.0098 180.289 89.0098C181.964 89.0098 183.272 89.6022 184.211 90.7871L184.326 89.2637H186.471V102.67C186.471 104.447 185.942 105.848 184.884 106.872C183.835 107.896 182.421 108.408 180.644 108.408C179.654 108.408 178.685 108.197 177.737 107.773C176.789 107.35 176.065 106.771 175.566 106.034L176.785 104.625C177.792 105.869 179.023 106.491 180.479 106.491C181.622 106.491 182.51 106.17 183.145 105.526C183.788 104.883 184.11 103.978 184.11 102.81V101.629C183.17 102.712 181.888 103.254 180.263 103.254C178.655 103.254 177.352 102.606 176.353 101.312C175.363 100.017 174.868 98.252 174.868 96.0176ZM177.229 96.2842C177.229 97.833 177.546 99.0518 178.181 99.9404C178.816 100.821 179.705 101.261 180.847 101.261C182.328 101.261 183.416 100.588 184.11 99.2422V92.9707C183.39 91.6589 182.311 91.0029 180.872 91.0029C179.73 91.0029 178.837 91.4473 178.194 92.3359C177.551 93.2246 177.229 94.5407 177.229 96.2842ZM195.726 103.254C193.864 103.254 192.349 102.645 191.181 101.426C190.013 100.199 189.429 98.5609 189.429 96.5127V96.0811C189.429 94.7184 189.687 93.5039 190.204 92.4375C190.728 91.3626 191.456 90.5247 192.387 89.9238C193.327 89.3145 194.342 89.0098 195.434 89.0098C197.22 89.0098 198.608 89.598 199.598 90.7744C200.588 91.9508 201.083 93.6351 201.083 95.8271V96.8047H191.778C191.812 98.1589 192.205 99.2549 192.958 100.093C193.72 100.922 194.685 101.337 195.853 101.337C196.682 101.337 197.385 101.168 197.96 100.829C198.536 100.491 199.039 100.042 199.471 99.4834L200.906 100.601C199.755 102.369 198.028 103.254 195.726 103.254ZM195.434 90.9395C194.486 90.9395 193.691 91.2865 193.047 91.9805C192.404 92.666 192.006 93.6309 191.854 94.875H198.735V94.6973C198.667 93.5039 198.345 92.5814 197.77 91.9297C197.194 91.2695 196.416 90.9395 195.434 90.9395ZM215.772 101.337C216.61 101.337 217.342 101.083 217.968 100.575C218.595 100.067 218.942 99.4326 219.009 98.6709H221.231C221.189 99.458 220.918 100.207 220.418 100.918C219.919 101.629 219.25 102.196 218.413 102.619C217.583 103.042 216.703 103.254 215.772 103.254C213.901 103.254 212.412 102.632 211.303 101.388C210.203 100.135 209.653 98.4255 209.653 96.2588V95.8652C209.653 94.528 209.898 93.3389 210.389 92.2979C210.88 91.2568 211.582 90.4486 212.497 89.873C213.419 89.2975 214.507 89.0098 215.759 89.0098C217.3 89.0098 218.578 89.471 219.593 90.3936C220.617 91.3161 221.163 92.5137 221.231 93.9863H219.009C218.942 93.0977 218.603 92.3698 217.994 91.8027C217.393 91.2272 216.648 90.9395 215.759 90.9395C214.566 90.9395 213.639 91.3711 212.979 92.2344C212.327 93.0892 212.001 94.3291 212.001 95.9541V96.3984C212.001 97.9811 212.327 99.1999 212.979 100.055C213.631 100.91 214.562 101.337 215.772 101.337ZM223.249 96.0049C223.249 94.6592 223.512 93.4489 224.037 92.374C224.57 91.2992 225.306 90.4697 226.246 89.8857C227.193 89.3018 228.273 89.0098 229.483 89.0098C231.353 89.0098 232.864 89.6572 234.015 90.9521C235.175 92.2471 235.754 93.9694 235.754 96.1191V96.2842C235.754 97.6214 235.496 98.8232 234.98 99.8896C234.472 100.948 233.74 101.773 232.784 102.365C231.836 102.958 230.744 103.254 229.508 103.254C227.646 103.254 226.136 102.606 224.976 101.312C223.825 100.017 223.249 98.3027 223.249 96.1699V96.0049ZM225.611 96.2842C225.611 97.8076 225.962 99.0306 226.664 99.9531C227.375 100.876 228.323 101.337 229.508 101.337C230.702 101.337 231.65 100.871 232.352 99.9404C233.054 99.001 233.406 97.6891 233.406 96.0049C233.406 94.4984 233.046 93.2796 232.327 92.3486C231.616 91.4092 230.668 90.9395 229.483 90.9395C228.323 90.9395 227.388 91.4007 226.677 92.3232C225.966 93.2458 225.611 94.5661 225.611 96.2842ZM240.909 89.2637L240.972 90.7871C241.979 89.6022 243.338 89.0098 245.047 89.0098C246.969 89.0098 248.276 89.7461 248.97 91.2188C249.427 90.5586 250.02 90.0254 250.747 89.6191C251.484 89.2129 252.351 89.0098 253.35 89.0098C256.363 89.0098 257.895 90.6051 257.946 93.7959V103H255.597V93.9355C255.597 92.9538 255.373 92.2217 254.924 91.7393C254.476 91.2484 253.722 91.0029 252.664 91.0029C251.793 91.0029 251.069 91.2653 250.494 91.79C249.918 92.3063 249.584 93.0046 249.491 93.8848V103H247.129V93.999C247.129 92.0016 246.152 91.0029 244.197 91.0029C242.656 91.0029 241.603 91.6589 241.036 92.9707V103H238.687V89.2637H240.909ZM264.052 103H261.704V89.2637H264.052V103ZM261.513 85.6201C261.513 85.2393 261.627 84.9176 261.856 84.6553C262.093 84.3929 262.44 84.2617 262.897 84.2617C263.354 84.2617 263.701 84.3929 263.938 84.6553C264.175 84.9176 264.293 85.2393 264.293 85.6201C264.293 86.001 264.175 86.3184 263.938 86.5723C263.701 86.8262 263.354 86.9531 262.897 86.9531C262.44 86.9531 262.093 86.8262 261.856 86.5723C261.627 86.3184 261.513 86.001 261.513 85.6201ZM270.044 89.2637L270.121 90.9902C271.17 89.6699 272.541 89.0098 274.234 89.0098C277.137 89.0098 278.601 90.6475 278.626 93.9229V103H276.278V93.9102C276.269 92.9199 276.041 92.1878 275.592 91.7139C275.152 91.2399 274.462 91.0029 273.523 91.0029C272.761 91.0029 272.093 91.2061 271.517 91.6123C270.942 92.0186 270.493 92.5518 270.171 93.2119V103H267.823V89.2637H270.044ZM281.61 96.0176C281.61 93.8763 282.105 92.1751 283.095 90.9141C284.085 89.6445 285.397 89.0098 287.031 89.0098C288.706 89.0098 290.014 89.6022 290.954 90.7871L291.068 89.2637H293.213V102.67C293.213 104.447 292.684 105.848 291.626 106.872C290.577 107.896 289.164 108.408 287.386 108.408C286.396 108.408 285.427 108.197 284.479 107.773C283.531 107.35 282.807 106.771 282.308 106.034L283.527 104.625C284.534 105.869 285.765 106.491 287.221 106.491C288.364 106.491 289.252 106.17 289.887 105.526C290.53 104.883 290.852 103.978 290.852 102.81V101.629C289.913 102.712 288.63 103.254 287.005 103.254C285.397 103.254 284.094 102.606 283.095 101.312C282.105 100.017 281.61 98.252 281.61 96.0176ZM283.971 96.2842C283.971 97.833 284.289 99.0518 284.923 99.9404C285.558 100.821 286.447 101.261 287.589 101.261C289.07 101.261 290.158 100.588 290.852 99.2422V92.9707C290.133 91.6589 289.053 91.0029 287.615 91.0029C286.472 91.0029 285.579 91.4473 284.936 92.3359C284.293 93.2246 283.971 94.5407 283.971 96.2842ZM156.129 129.356C156.129 128.722 155.888 128.231 155.406 127.884C154.932 127.528 154.098 127.224 152.905 126.97C151.72 126.716 150.776 126.411 150.074 126.056C149.38 125.7 148.863 125.277 148.525 124.786C148.195 124.295 148.03 123.711 148.03 123.034C148.03 121.909 148.504 120.956 149.452 120.178C150.408 119.399 151.627 119.01 153.108 119.01C154.665 119.01 155.926 119.412 156.891 120.216C157.864 121.02 158.351 122.048 158.351 123.301H155.99C155.99 122.658 155.715 122.103 155.164 121.638C154.623 121.172 153.937 120.939 153.108 120.939C152.253 120.939 151.584 121.126 151.102 121.498C150.62 121.87 150.378 122.357 150.378 122.958C150.378 123.525 150.603 123.952 151.051 124.24C151.5 124.528 152.308 124.803 153.476 125.065C154.652 125.328 155.605 125.641 156.332 126.005C157.06 126.369 157.598 126.809 157.945 127.325C158.3 127.833 158.478 128.455 158.478 129.191C158.478 130.419 157.987 131.405 157.005 132.149C156.024 132.886 154.75 133.254 153.184 133.254C152.084 133.254 151.11 133.059 150.264 132.67C149.418 132.281 148.753 131.739 148.271 131.045C147.797 130.342 147.56 129.585 147.56 128.772H149.909C149.951 129.56 150.264 130.186 150.848 130.651C151.441 131.108 152.219 131.337 153.184 131.337C154.073 131.337 154.784 131.159 155.317 130.804C155.859 130.44 156.129 129.957 156.129 129.356ZM160.915 126.005C160.915 124.659 161.178 123.449 161.703 122.374C162.236 121.299 162.972 120.47 163.912 119.886C164.859 119.302 165.939 119.01 167.149 119.01C169.019 119.01 170.53 119.657 171.681 120.952C172.841 122.247 173.42 123.969 173.42 126.119V126.284C173.42 127.621 173.162 128.823 172.646 129.89C172.138 130.948 171.406 131.773 170.45 132.365C169.502 132.958 168.41 133.254 167.174 133.254C165.312 133.254 163.802 132.606 162.642 131.312C161.491 130.017 160.915 128.303 160.915 126.17V126.005ZM163.277 126.284C163.277 127.808 163.628 129.031 164.331 129.953C165.041 130.876 165.989 131.337 167.174 131.337C168.368 131.337 169.316 130.871 170.018 129.94C170.72 129.001 171.072 127.689 171.072 126.005C171.072 124.498 170.712 123.28 169.993 122.349C169.282 121.409 168.334 120.939 167.149 120.939C165.989 120.939 165.054 121.401 164.343 122.323C163.632 123.246 163.277 124.566 163.277 126.284ZM175.744 126.005C175.744 124.659 176.006 123.449 176.531 122.374C177.064 121.299 177.8 120.47 178.74 119.886C179.688 119.302 180.767 119.01 181.977 119.01C183.847 119.01 185.358 119.657 186.509 120.952C187.669 122.247 188.248 123.969 188.248 126.119V126.284C188.248 127.621 187.99 128.823 187.474 129.89C186.966 130.948 186.234 131.773 185.278 132.365C184.33 132.958 183.238 133.254 182.002 133.254C180.14 133.254 178.63 132.606 177.47 131.312C176.319 130.017 175.744 128.303 175.744 126.17V126.005ZM178.105 126.284C178.105 127.808 178.456 129.031 179.159 129.953C179.87 130.876 180.817 131.337 182.002 131.337C183.196 131.337 184.144 130.871 184.846 129.94C185.549 129.001 185.9 127.689 185.9 126.005C185.9 124.498 185.54 123.28 184.821 122.349C184.11 121.409 183.162 120.939 181.977 120.939C180.817 120.939 179.882 121.401 179.171 122.323C178.46 123.246 178.105 124.566 178.105 126.284ZM193.415 119.264L193.492 120.99C194.541 119.67 195.912 119.01 197.605 119.01C200.508 119.01 201.972 120.647 201.997 123.923V133H199.649V123.91C199.64 122.92 199.412 122.188 198.963 121.714C198.523 121.24 197.833 121.003 196.894 121.003C196.132 121.003 195.464 121.206 194.888 121.612C194.313 122.019 193.864 122.552 193.542 123.212V133H191.194V119.264H193.415Z" fill="#B9B9B9"/>
</svg>
