<svg width="25" height="25" viewBox="0 0 25 25" fill="none" xmlns="http://www.w3.org/2000/svg">
<circle cx="12.5" cy="12.5" r="12.5" fill="#C3C3C3"/>
<path d="M19.687 4.71924V14.4242" stroke="white" stroke-linecap="round"/>
<path d="M19.6871 19.135C20.9767 19.135 22.0222 18.0895 22.0222 16.7999C22.0222 15.5103 20.9767 14.4648 19.6871 14.4648C18.3975 14.4648 17.3521 15.5103 17.3521 16.7999C17.3521 18.0895 18.3975 19.135 19.6871 19.135Z" stroke="white"/>
<path d="M14.6558 4.71924V14.4242" stroke="white" stroke-linecap="round"/>
<path d="M14.6559 19.135C15.9455 19.135 16.9909 18.0895 16.9909 16.7999C16.9909 15.5103 15.9455 14.4648 14.6559 14.4648C13.3662 14.4648 12.3208 15.5103 12.3208 16.7999C12.3208 18.0895 13.3662 19.135 14.6559 19.135Z" stroke="white"/>
<path d="M9.79199 4.72266L6.07588 13.6879" stroke="white" stroke-linecap="round"/>
<path d="M4.27202 18.0398C5.46333 18.5337 6.82941 17.9683 7.32325 16.7769C7.81709 15.5856 7.25168 14.2196 6.06037 13.7257C4.86907 13.2319 3.50298 13.7973 3.00915 14.9886C2.51531 16.1799 3.08072 17.546 4.27202 18.0398Z" stroke="white"/>
<path d="M8.4594 17.7269C8.77649 17.7269 9.03355 17.4699 9.03355 17.1528C9.03355 16.8357 8.77649 16.5786 8.4594 16.5786C8.14231 16.5786 7.88525 16.8357 7.88525 17.1528C7.88525 17.4699 8.14231 17.7269 8.4594 17.7269Z" fill="white"/>
<path d="M9.87786 17.9559C10.195 17.9559 10.452 17.6989 10.452 17.3818C10.452 17.0647 10.195 16.8076 9.87786 16.8076C9.56077 16.8076 9.30371 17.0647 9.30371 17.3818C9.30371 17.6989 9.56077 17.9559 9.87786 17.9559Z" fill="white"/>
<path d="M11.2699 18.0609C11.587 18.0609 11.8441 17.8038 11.8441 17.4867C11.8441 17.1697 11.587 16.9126 11.2699 16.9126C10.9529 16.9126 10.6958 17.1697 10.6958 17.4867C10.6958 17.8038 10.9529 18.0609 11.2699 18.0609Z" fill="white"/>
</svg>
