<svg width="25" height="25" viewBox="0 0 25 25" fill="none" xmlns="http://www.w3.org/2000/svg">
<circle cx="12.5" cy="12.5" r="12.5" fill="#C3C3C3"/>
<path d="M5.90625 4.46191V14.1668" stroke="white" stroke-linecap="round"/>
<path d="M5.90614 18.8777C4.61652 18.8777 3.57107 17.8322 3.57107 16.5426C3.57107 15.253 4.61652 14.2075 5.90614 14.2075C7.19576 14.2075 8.24121 15.253 8.24121 16.5426C8.24121 17.8322 7.19576 18.8777 5.90614 18.8777Z" stroke="white"/>
<path d="M10.9375 4.46191V14.1668" stroke="white" stroke-linecap="round"/>
<path d="M10.9374 18.8777C9.64776 18.8777 8.60232 17.8322 8.60232 16.5426C8.60232 15.253 9.64776 14.2075 10.9374 14.2075C12.227 14.2075 13.2725 15.253 13.2725 16.5426C13.2725 17.8322 12.227 18.8777 10.9374 18.8777Z" stroke="white"/>
<path d="M15.8013 4.46533L19.5174 13.4306" stroke="white" stroke-linecap="round"/>
<path d="M21.3212 17.7825C20.1299 18.2763 18.7639 17.7109 18.27 16.5196C17.7762 15.3283 18.3416 13.9622 19.5329 13.4684C20.7242 12.9746 22.0903 13.54 22.5841 14.7313C23.078 15.9226 22.5125 17.2887 21.3212 17.7825Z" stroke="white"/>
<path d="M17.1339 17.4696C16.8168 17.4696 16.5597 17.2125 16.5597 16.8954C16.5597 16.5783 16.8168 16.3213 17.1339 16.3213C17.451 16.3213 17.708 16.5783 17.708 16.8954C17.708 17.2125 17.451 17.4696 17.1339 17.4696Z" fill="white"/>
<path d="M15.7154 17.6986C15.3983 17.6986 15.1413 17.4415 15.1413 17.1244C15.1413 16.8073 15.3983 16.5503 15.7154 16.5503C16.0325 16.5503 16.2896 16.8073 16.2896 17.1244C16.2896 17.4415 16.0325 17.6986 15.7154 17.6986Z" fill="white"/>
<path d="M14.3233 17.8036C14.0062 17.8036 13.7492 17.5465 13.7492 17.2294C13.7492 16.9123 14.0062 16.6553 14.3233 16.6553C14.6404 16.6553 14.8975 16.9123 14.8975 17.2294C14.8975 17.5465 14.6404 17.8036 14.3233 17.8036Z" fill="white"/>
</svg>
