<svg width="25" height="25" viewBox="0 0 25 25" fill="none" xmlns="http://www.w3.org/2000/svg">
<circle cx="12.5" cy="12.5" r="12.5" fill="#C3C3C3"/>
<path d="M13.6471 12.245L19.607 6.28477C19.9949 5.89708 19.9949 5.27025 19.607 4.88256C19.2193 4.49488 18.5925 4.49488 18.2048 4.88256L12.2448 10.8428L6.28487 4.88256C5.89701 4.49488 5.27037 4.49488 4.88269 4.88256C4.49483 5.27025 4.49483 5.89708 4.88269 6.28477L10.8426 12.245L4.88269 18.2052C4.49483 18.5929 4.49483 19.2197 4.88269 19.6074C5.0759 19.8008 5.32993 19.8979 5.58378 19.8979C5.83763 19.8979 6.09149 19.8008 6.28487 19.6074L12.2448 13.6472L18.2048 19.6074C18.3982 19.8008 18.6521 19.8979 18.9059 19.8979C19.1598 19.8979 19.4136 19.8008 19.607 19.6074C19.9949 19.2197 19.9949 18.5929 19.607 18.2052L13.6471 12.245Z" fill="white"/>
</svg>
