<svg width="25" height="25" viewBox="0 0 25 25" fill="none" xmlns="http://www.w3.org/2000/svg">
<circle cx="12.5" cy="12.5" r="12.5" fill="#C3C3C3"/>
<path d="M8.60814 19.8979C9.85882 19.8979 10.5228 18.7809 10.718 18.1211C10.7211 18.1107 10.724 18.1 10.7267 18.0892C11.1817 16.2048 11.9064 13.2182 12.4433 11.0458H14.3643C14.7255 11.0458 15.0184 10.7531 15.0184 10.3918C15.0184 10.0305 14.7255 9.73769 14.3643 9.73769H12.7684C12.9403 9.05323 13.066 8.56573 13.1155 8.39937L13.1705 8.21314C13.3733 7.52115 13.8481 5.90026 14.5824 5.90026C15.2633 5.90026 15.3648 6.94892 15.3694 6.99962C15.3984 7.35866 15.7116 7.62984 16.0715 7.59881C16.4318 7.57131 16.7013 7.25652 16.6735 6.89651C16.6124 6.09927 16.0961 4.5918 14.5822 4.5918C12.868 4.5918 12.2244 6.789 11.9152 7.84518L11.8626 8.02336C11.7998 8.23236 11.6349 8.87634 11.4199 9.73769H9.13139C8.7701 9.73769 8.47732 10.0305 8.47732 10.3918C8.47732 10.7531 8.7701 11.0458 9.13139 11.0458H11.0959C10.4243 13.7697 9.55638 17.3626 9.4609 17.7582C9.42524 17.8618 9.15706 18.5897 8.60846 18.5897C7.77073 18.5897 7.40804 17.4138 7.40514 17.405C7.30461 17.0582 6.94278 16.8575 6.59491 16.9587C6.248 17.0593 6.04802 17.422 6.14855 17.769C6.37742 18.5596 7.15275 19.8979 8.60814 19.8979Z" fill="white"/>
<path d="M18.3082 18.2113C18.6937 18.2113 19.0176 17.9375 19.0176 17.5017C19.0176 17.2993 18.9366 17.1166 18.7642 16.9138L17.4061 15.3528L18.724 13.8121C18.8455 13.66 18.9366 13.4978 18.9366 13.2849C18.9366 12.8994 18.6223 12.6157 18.2167 12.6157C17.9432 12.6157 17.7305 12.788 17.5477 13.0114L16.5241 14.349L15.5206 13.0112C15.3176 12.758 15.1051 12.6157 14.801 12.6157C14.4155 12.6157 14.0914 12.8897 14.0914 13.3255C14.0914 13.528 14.1726 13.7107 14.3446 13.9131L15.6118 15.3729L14.2229 17.015C14.0911 17.167 14.0103 17.3292 14.0103 17.5421C14.0103 17.9276 14.3245 18.2111 14.7297 18.2111C15.0035 18.2111 15.2163 18.0388 15.3987 17.8156L16.4931 16.3765L17.5879 17.8156C17.7913 18.0694 18.0042 18.2113 18.3082 18.2113Z" fill="white"/>
</svg>
