<svg width="25" height="25" viewBox="0 0 25 25" fill="none" xmlns="http://www.w3.org/2000/svg">
<circle cx="12.5" cy="12.5" r="12.5" fill="#BC4343"/>
<path d="M18.2402 6.6709V13.9833" stroke="white" stroke-linecap="round"/>
<path d="M18.2399 17.5328C19.2116 17.5328 19.9993 16.745 19.9993 15.7733C19.9993 14.8016 19.2116 14.0139 18.2399 14.0139C17.2682 14.0139 16.4805 14.8016 16.4805 15.7733C16.4805 16.745 17.2682 17.5328 18.2399 17.5328Z" stroke="white"/>
<path d="M14.4512 6.6709V13.9833" stroke="white" stroke-linecap="round"/>
<path d="M14.4508 17.5328C15.4225 17.5328 16.2103 16.745 16.2103 15.7733C16.2103 14.8016 15.4225 14.0139 14.4508 14.0139C13.4791 14.0139 12.6914 14.8016 12.6914 15.7733C12.6914 16.745 13.4791 17.5328 14.4508 17.5328Z" stroke="white"/>
<path d="M10.7832 6.67358L7.9832 13.4287" stroke="white" stroke-linecap="round"/>
<path d="M6.62351 16.7075C7.52114 17.0796 8.55045 16.6536 8.92254 15.756C9.29464 14.8584 8.86862 13.829 7.97099 13.4569C7.07337 13.0848 6.04406 13.5109 5.67196 14.4085C5.29987 15.3061 5.72589 16.3354 6.62351 16.7075Z" stroke="white"/>
<path d="M9.26464 18.0237C9.50356 18.0237 9.69725 17.83 9.69725 17.5911C9.69725 17.3521 9.50356 17.1584 9.26464 17.1584C9.02572 17.1584 8.83203 17.3521 8.83203 17.5911C8.83203 17.83 9.02572 18.0237 9.26464 18.0237Z" fill="white"/>
<path d="M10.6045 18.2446C10.8434 18.2446 11.0371 18.0509 11.0371 17.812C11.0371 17.5731 10.8434 17.3794 10.6045 17.3794C10.3656 17.3794 10.1719 17.5731 10.1719 17.812C10.1719 18.0509 10.3656 18.2446 10.6045 18.2446Z" fill="white"/>
<path d="M11.8994 18.2754C12.1383 18.2754 12.332 18.0817 12.332 17.8428C12.332 17.6038 12.1383 17.4102 11.8994 17.4102C11.6605 17.4102 11.4668 17.6038 11.4668 17.8428C11.4668 18.0817 11.6605 18.2754 11.8994 18.2754Z" fill="white"/>
</svg>
