<svg width="25" height="25" viewBox="0 0 25 25" fill="none" xmlns="http://www.w3.org/2000/svg">
<circle cx="12.5" cy="12.5" r="12.5" fill="#64BC7C"/>
<path d="M7.75781 6.6709V13.9841" stroke="white" stroke-linecap="round"/>
<path d="M7.75798 17.5339C6.78618 17.5339 5.99839 16.7461 5.99839 15.7743C5.99839 14.8025 6.78618 14.0146 7.75798 14.0146C8.72978 14.0146 9.51758 14.8025 9.51758 15.7743C9.51758 16.7461 8.72978 17.5339 7.75798 17.5339Z" stroke="white"/>
<path d="M11.5508 6.6709V13.9841" stroke="white" stroke-linecap="round"/>
<path d="M11.551 17.5339C10.5792 17.5339 9.79135 16.7461 9.79135 15.7743C9.79135 14.8025 10.5792 14.0146 11.551 14.0146C12.5227 14.0146 13.3105 14.8025 13.3105 15.7743C13.3105 16.7461 12.5227 17.5339 11.551 17.5339Z" stroke="white"/>
<path d="M15.2148 6.67334L18.0151 13.4292" stroke="white" stroke-linecap="round"/>
<path d="M19.3745 16.7084C18.4768 17.0806 17.4474 16.6545 17.0753 15.7568C16.7031 14.8591 17.1292 13.8296 18.0269 13.4575C18.9246 13.0854 19.954 13.5114 20.3262 14.4092C20.6983 15.3069 20.2722 16.3363 19.3745 16.7084Z" stroke="white"/>
<path d="M16.7373 18.0247C16.4983 18.0247 16.3046 17.831 16.3046 17.5921C16.3046 17.3531 16.4983 17.1594 16.7373 17.1594C16.9762 17.1594 17.1699 17.3531 17.1699 17.5921C17.1699 17.831 16.9762 18.0247 16.7373 18.0247Z" fill="white"/>
<path d="M15.3955 18.2457C15.1565 18.2457 14.9628 18.052 14.9628 17.813C14.9628 17.5741 15.1565 17.3804 15.3955 17.3804C15.6344 17.3804 15.8281 17.5741 15.8281 17.813C15.8281 18.052 15.6344 18.2457 15.3955 18.2457Z" fill="white"/>
<path d="M14.1025 18.2762C13.8636 18.2762 13.6699 18.0825 13.6699 17.8435C13.6699 17.6046 13.8636 17.4109 14.1025 17.4109C14.3415 17.4109 14.5352 17.6046 14.5352 17.8435C14.5352 18.0825 14.3415 18.2762 14.1025 18.2762Z" fill="white"/>
</svg>
