<svg width="25" height="25" viewBox="0 0 25 25" fill="none" xmlns="http://www.w3.org/2000/svg">
<circle cx="12.5" cy="12.5" r="12.5" fill="#E6C348"/>
<path d="M8.10845 6.60197C9.56328 8.21423 10.8978 11.1153 5.50134 9.49993" stroke="white" stroke-linecap="round"/>
<path d="M10.765 11.8198C9.83805 11.5944 7.97366 10.7535 7.93186 9.19364C7.89006 7.63381 10.015 8.20666 11.0827 8.68806C11.6215 8.98581 12.5977 9.77413 12.1919 10.5454" stroke="white" stroke-linecap="round"/>
<path d="M15.5 20.5C15.025 18.3363 13.75 13.25 19.5 18.5M13.1943 15.893C14.6286 18.2895 16.2207 17.8868 16.8374 17.3859C17.0878 16.9984 17.252 15.8542 15.9051 14.3774C14.2214 12.5316 13.727 12.431 13.2327 12.3304C12.7383 12.2298 11.4013 12.8974 13.1943 15.893Z" stroke="white" stroke-linecap="round"/>
<path d="M14.3457 8.82759L15.2767 6.5" stroke="white" stroke-linecap="round" stroke-linejoin="round"/>
<path d="M15.7422 10.2242L17.6043 8.82764" stroke="white" stroke-linecap="round"/>
<path d="M16.6719 12.0862L18.5339 13.0172" stroke="white" stroke-linecap="round"/>
</svg>
