<svg width="25" height="25" viewBox="0 0 25 25" fill="none" xmlns="http://www.w3.org/2000/svg">
<circle cx="12.5" cy="12.5" r="12.5" fill="#0C2373"/>
<path d="M8.55891 19.5918C9.78458 19.5918 10.4353 18.4972 10.6266 17.8505C10.6297 17.8403 10.6325 17.8299 10.6351 17.8192C11.081 15.9726 11.7912 13.0457 12.3174 10.9168H14.1999C14.5539 10.9168 14.8409 10.6298 14.8409 10.2758C14.8409 9.92169 14.5539 9.63477 14.1999 9.63477H12.636C12.8044 8.964 12.9276 8.48626 12.9762 8.32322L13.0301 8.14071C13.2288 7.46257 13.6941 5.87409 14.4137 5.87409C15.081 5.87409 15.1805 6.90178 15.185 6.95146C15.2134 7.30332 15.5203 7.56908 15.873 7.53866C16.2261 7.51172 16.4902 7.20322 16.463 6.85042C16.4031 6.06913 15.8971 4.5918 14.4135 4.5918C12.7336 4.5918 12.1029 6.74506 11.7999 7.78011L11.7483 7.95473C11.6867 8.15955 11.5251 8.79065 11.3144 9.63477H9.0717C8.71763 9.63477 8.43071 9.92169 8.43071 10.2758C8.43071 10.6298 8.71763 10.9168 9.0717 10.9168H10.9969C10.3387 13.5862 9.48819 17.1072 9.39462 17.4948C9.35968 17.5964 9.09686 18.3097 8.55923 18.3097C7.73826 18.3097 7.38282 17.1574 7.37998 17.1488C7.28146 16.8089 6.92686 16.6122 6.58595 16.7113C6.24598 16.81 6.05 17.1654 6.14852 17.5055C6.37281 18.2802 7.13263 19.5918 8.55891 19.5918Z" fill="white"/>
<path d="M18.0655 17.939C18.4433 17.939 18.7607 17.6707 18.7607 17.2436C18.7607 17.0452 18.6814 16.8662 18.5124 16.6674L17.1814 15.1377L18.473 13.6277C18.5921 13.4787 18.6814 13.3198 18.6814 13.1112C18.6814 12.7333 18.3733 12.4553 17.9758 12.4553C17.7078 12.4553 17.4994 12.6241 17.3202 12.8431L16.3171 14.1539L15.3337 12.8429C15.1348 12.5948 14.9265 12.4553 14.6285 12.4553C14.2506 12.4553 13.9331 12.7238 13.9331 13.1509C13.9331 13.3493 14.0127 13.5284 14.1812 13.7268L15.423 15.1574L14.0619 16.7666C13.9328 16.9156 13.8535 17.0746 13.8535 17.2832C13.8535 17.6609 14.1615 17.9388 14.5586 17.9388C14.8269 17.9388 15.0354 17.77 15.2142 17.5512L16.2868 16.1409L17.3596 17.5512C17.5589 17.8 17.7676 17.939 18.0655 17.939Z" fill="white"/>
</svg>
