<svg width="60" height="60" viewBox="0 0 60 60" fill="none" xmlns="http://www.w3.org/2000/svg">
<g filter="url(#filter0_d)">
<rect x="8" y="4" width="44" height="44" rx="22" fill="#0C2373"/>
</g>
<path d="M39.4286 23.25H32.3571V16.5C32.3571 15.6717 31.6534 15 30.7857 15H29.2143C28.3466 15 27.6429 15.6717 27.6429 16.5V23.25H20.5714C19.7037 23.25 19 23.9217 19 24.75V26.25C19 27.0783 19.7037 27.75 20.5714 27.75H27.6429V34.5C27.6429 35.3283 28.3466 36 29.2143 36H30.7857C31.6534 36 32.3571 35.3283 32.3571 34.5V27.75H39.4286C40.2963 27.75 41 27.0783 41 26.25V24.75C41 23.9217 40.2963 23.25 39.4286 23.25Z" fill="white"/>
<defs>
<filter id="filter0_d" x="0" y="0" width="60" height="60" filterUnits="userSpaceOnUse" color-interpolation-filters="sRGB">
<feFlood flood-opacity="0" result="BackgroundImageFix"/>
<feColorMatrix in="SourceAlpha" type="matrix" values="0 0 0 0 0 0 0 0 0 0 0 0 0 0 0 0 0 0 127 0"/>
<feOffset dy="4"/>
<feGaussianBlur stdDeviation="4"/>
<feColorMatrix type="matrix" values="0 0 0 0 0.0470588 0 0 0 0 0.137255 0 0 0 0 0.45098 0 0 0 0.08 0"/>
<feBlend mode="normal" in2="BackgroundImageFix" result="effect1_dropShadow"/>
<feBlend mode="normal" in="SourceGraphic" in2="effect1_dropShadow" result="shape"/>
</filter>
</defs>
</svg>
