<svg width="50" height="50" viewBox="0 0 50 50" fill="none" xmlns="http://www.w3.org/2000/svg">
<circle cx="25" cy="25" r="25" fill="#BC4343"/>
<path d="M39.3739 9.43848V28.8483" stroke="white" stroke-width="1.90233" stroke-linecap="round"/>
<path d="M39.3739 38.2697C41.9531 38.2697 44.044 36.1788 44.044 33.5996C44.044 31.0203 41.9531 28.9294 39.3739 28.9294C36.7946 28.9294 34.7037 31.0203 34.7037 33.5996C34.7037 36.1788 36.7946 38.2697 39.3739 38.2697Z" stroke="white" stroke-width="2.11667"/>
<path d="M29.3119 9.43848V28.8483" stroke="white" stroke-width="1.90233" stroke-linecap="round"/>
<path d="M29.3119 38.2697C31.8911 38.2697 33.982 36.1788 33.982 33.5996C33.982 31.0203 31.8911 28.9294 29.3119 28.9294C26.7326 28.9294 24.6417 31.0203 24.6417 33.5996C24.6417 36.1788 26.7326 38.2697 29.3119 38.2697Z" stroke="white" stroke-width="2.11667"/>
<path d="M19.5835 9.4458L12.1513 27.3763" stroke="white" stroke-width="1.90233" stroke-linecap="round"/>
<path d="M8.54356 36.0796C10.9262 37.0673 13.6583 35.9365 14.646 33.5539C15.6337 31.1713 14.5029 28.4391 12.1203 27.4514C9.73764 26.4638 7.00548 27.5946 6.0178 29.9772C5.03012 32.3598 6.16094 35.092 8.54356 36.0796Z" stroke="white" stroke-width="2.11667"/>
<path d="M16.9186 35.4543C17.5527 35.4543 18.0669 34.9402 18.0669 34.306C18.0669 33.6718 17.5527 33.1577 16.9186 33.1577C16.2844 33.1577 15.7703 33.6718 15.7703 34.306C15.7703 34.9402 16.2844 35.4543 16.9186 35.4543Z" fill="white"/>
<path d="M19.7556 35.9121C20.3898 35.9121 20.9039 35.398 20.9039 34.7638C20.9039 34.1296 20.3898 33.6155 19.7556 33.6155C19.1214 33.6155 18.6073 34.1296 18.6073 34.7638C18.6073 35.398 19.1214 35.9121 19.7556 35.9121Z" fill="white"/>
<path d="M22.54 36.122C23.1742 36.122 23.6883 35.6079 23.6883 34.9737C23.6883 34.3395 23.1742 33.8254 22.54 33.8254C21.9058 33.8254 21.3917 34.3395 21.3917 34.9737C21.3917 35.6079 21.9058 36.122 22.54 36.122Z" fill="white"/>
</svg>
