<svg width="32" height="30" viewBox="0 0 32 30" fill="none" xmlns="http://www.w3.org/2000/svg">
<path d="M27.4043 4.28711V18.3161" stroke="#BC4343" stroke-width="1.90233" stroke-linecap="round"/>
<path d="M27.4028 25.1257C29.267 25.1257 30.7783 23.6144 30.7783 21.7502C30.7783 19.886 29.267 18.3748 27.4028 18.3748C25.5386 18.3748 24.0273 19.886 24.0273 21.7502C24.0273 23.6144 25.5386 25.1257 27.4028 25.1257Z" stroke="#BC4343" stroke-width="2.11667"/>
<path d="M20.1309 4.28687V18.3158" stroke="#BC4343" stroke-width="1.90233" stroke-linecap="round"/>
<path d="M20.1294 25.1254C21.9936 25.1254 23.5048 23.6142 23.5048 21.75C23.5048 19.8858 21.9936 18.3745 20.1294 18.3745C18.2652 18.3745 16.7539 19.8858 16.7539 21.75C16.7539 23.6142 18.2652 25.1254 20.1294 25.1254Z" stroke="#BC4343" stroke-width="2.11667"/>
<path d="M13.0957 4.29224L7.72387 17.252" stroke="#BC4343" stroke-width="1.90233" stroke-linecap="round"/>
<path d="M5.11696 23.5425C6.83906 24.2564 8.8138 23.4391 9.52767 21.717C10.2415 19.9949 9.42421 18.0201 7.70212 17.3062C5.98002 16.5924 4.00528 17.4097 3.29141 19.1318C2.57754 20.8539 3.39487 22.8286 5.11696 23.5425Z" stroke="#BC4343" stroke-width="2.11667"/>
<path d="M10.1815 26.0676C10.6399 26.0676 11.0115 25.6961 11.0115 25.2377C11.0115 24.7793 10.6399 24.4077 10.1815 24.4077C9.72315 24.4077 9.35156 24.7793 9.35156 25.2377C9.35156 25.6961 9.72315 26.0676 10.1815 26.0676Z" fill="#BC4343"/>
<path d="M12.7538 26.4915C13.2122 26.4915 13.5838 26.1199 13.5838 25.6615C13.5838 25.2031 13.2122 24.8315 12.7538 24.8315C12.2954 24.8315 11.9238 25.2031 11.9238 25.6615C11.9238 26.1199 12.2954 26.4915 12.7538 26.4915Z" fill="#BC4343"/>
<path d="M15.2362 26.5503C15.6946 26.5503 16.0662 26.1787 16.0662 25.7203C16.0662 25.262 15.6946 24.8904 15.2362 24.8904C14.7778 24.8904 14.4062 25.262 14.4062 25.7203C14.4062 26.1787 14.7778 26.5503 15.2362 26.5503Z" fill="#BC4343"/>
</svg>
