<svg width="50" height="50" viewBox="0 0 50 50" fill="none" xmlns="http://www.w3.org/2000/svg">
<circle cx="25" cy="25" r="25" fill="#64BC7C"/>
<path d="M11.8129 8.92383V28.3337" stroke="white" stroke-width="1.90233" stroke-linecap="round"/>
<path d="M11.8129 37.7551C9.23364 37.7551 7.14275 35.6642 7.14275 33.0849C7.14275 30.5057 9.23364 28.4148 11.8129 28.4148C14.3921 28.4148 16.483 30.5057 16.483 33.0849C16.483 35.6642 14.3921 37.7551 11.8129 37.7551Z" stroke="white" stroke-width="2.11667"/>
<path d="M21.8749 8.92383V28.3337" stroke="white" stroke-width="1.90233" stroke-linecap="round"/>
<path d="M21.8749 37.7551C19.2957 37.7551 17.2048 35.6642 17.2048 33.0849C17.2048 30.5057 19.2957 28.4148 21.8749 28.4148C24.4541 28.4148 26.545 30.5057 26.545 33.0849C26.545 35.6642 24.4541 37.7551 21.8749 37.7551Z" stroke="white" stroke-width="2.11667"/>
<path d="M31.6033 8.93115L39.0355 26.8617" stroke="white" stroke-width="1.90233" stroke-linecap="round"/>
<path d="M42.6432 35.565C40.2606 36.5527 37.5284 35.4219 36.5408 33.0392C35.5531 30.6566 36.6839 27.9245 39.0665 26.9368C41.4491 25.9491 44.1813 27.0799 45.169 29.4625C46.1566 31.8452 45.0258 34.5773 42.6432 35.565Z" stroke="white" stroke-width="2.11667"/>
<path d="M34.2682 34.9397C33.634 34.9397 33.1199 34.4255 33.1199 33.7914C33.1199 33.1572 33.634 32.6431 34.2682 32.6431C34.9024 32.6431 35.4165 33.1572 35.4165 33.7914C35.4165 34.4255 34.9024 34.9397 34.2682 34.9397Z" fill="white"/>
<path d="M31.4312 35.3974C30.797 35.3974 30.2829 34.8833 30.2829 34.2491C30.2829 33.6149 30.797 33.1008 31.4312 33.1008C32.0654 33.1008 32.5795 33.6149 32.5795 34.2491C32.5795 34.8833 32.0654 35.3974 31.4312 35.3974Z" fill="white"/>
<path d="M28.6467 35.6074C28.0126 35.6074 27.4985 35.0933 27.4985 34.4591C27.4985 33.8249 28.0126 33.3108 28.6467 33.3108C29.2809 33.3108 29.795 33.8249 29.795 34.4591C29.795 35.0933 29.2809 35.6074 28.6467 35.6074Z" fill="white"/>
</svg>
