<svg width="32" height="30" viewBox="0 0 32 30" fill="none" xmlns="http://www.w3.org/2000/svg">
<path d="M5.40234 4.29736V18.4345" stroke="#64BC7C" stroke-width="1.90233" stroke-linecap="round"/>
<path d="M5.40322 25.2966C3.52465 25.2966 2.00176 23.7737 2.00176 21.8951C2.00176 20.0165 3.52465 18.4937 5.40322 18.4937C7.2818 18.4937 8.80469 20.0165 8.80469 21.8951C8.80469 23.7737 7.2818 25.2966 5.40322 25.2966Z" stroke="#64BC7C" stroke-width="2.11667"/>
<path d="M12.7324 4.29736V18.4345" stroke="#64BC7C" stroke-width="1.90233" stroke-linecap="round"/>
<path d="M12.7333 25.2966C10.8547 25.2966 9.33184 23.7737 9.33184 21.8951C9.33184 20.0165 10.8547 18.4937 12.7333 18.4937C14.6119 18.4937 16.1348 20.0165 16.1348 21.8951C16.1348 23.7737 14.6119 25.2966 12.7333 25.2966Z" stroke="#64BC7C" stroke-width="2.11667"/>
<path d="M19.8184 4.30225L25.2316 17.3619" stroke="#64BC7C" stroke-width="1.90233" stroke-linecap="round"/>
<path d="M27.8574 23.7009C26.1221 24.4203 24.1321 23.5966 23.4128 21.8613C22.6934 20.1259 23.517 18.1359 25.2524 17.4166C26.9877 16.6972 28.9777 17.5208 29.6971 19.2562C30.4164 20.9916 29.5928 22.9815 27.8574 23.7009Z" stroke="#64BC7C" stroke-width="2.11667"/>
<path d="M22.7594 26.2457C22.2974 26.2457 21.923 25.8713 21.923 25.4094C21.923 24.9474 22.2974 24.573 22.7594 24.573C23.2213 24.573 23.5957 24.9474 23.5957 25.4094C23.5957 25.8713 23.2213 26.2457 22.7594 26.2457Z" fill="#64BC7C"/>
<path d="M20.1656 26.6727C19.7037 26.6727 19.3292 26.2983 19.3292 25.8364C19.3292 25.3744 19.7037 25 20.1656 25C20.6275 25 21.002 25.3744 21.002 25.8364C21.002 26.2983 20.6275 26.6727 20.1656 26.6727Z" fill="#64BC7C"/>
<path d="M17.6656 26.732C17.2037 26.732 16.8292 26.3576 16.8292 25.8957C16.8292 25.4338 17.2037 25.0593 17.6656 25.0593C18.1275 25.0593 18.502 25.4338 18.502 25.8957C18.502 26.3576 18.1275 26.732 17.6656 26.732Z" fill="#64BC7C"/>
</svg>
