<svg width="50" height="50" viewBox="0 0 50 50" fill="none" xmlns="http://www.w3.org/2000/svg">
<circle cx="25" cy="25" r="25" fill="#E6C348"/>
<path d="M13.3399 9.28729C17.435 13.8255 21.8277 21.7653 6.63771 17.2184" stroke="white" stroke-width="2"/>
<path d="M20.8196 23.9745C18.2103 23.3398 12.9623 20.9729 12.8447 16.5822C12.727 12.1916 18.7084 13.804 21.7137 15.1591C23.2305 15.9972 25.9784 18.2162 24.8359 20.3872" stroke="white" stroke-width="2"/>
<path d="M34.714 45.8678C33.3769 39.7772 32.7836 30.6642 41.1067 42.9367M27.6578 35.4399C31.6954 42.1857 36.1767 41.0521 37.9126 39.6421C38.6176 38.5513 39.0797 35.3305 35.2883 31.1738C30.549 25.9779 29.1575 25.6948 27.766 25.4117C26.3745 25.1286 22.6109 27.0077 27.6578 35.4399Z" stroke="white" stroke-width="2"/>
<path d="M31 18.0002L33 13.0002" stroke="white" stroke-width="2"/>
<path d="M33 20.0002L39 19.0002" stroke="white" stroke-width="2"/>
<path d="M33 24.0002L39 25.0002" stroke="white" stroke-width="2"/>
</svg>
