<svg width="31" height="31" viewBox="0 0 31 31" fill="none" xmlns="http://www.w3.org/2000/svg">
<path d="M7.21494 2.20394C10.1246 5.42846 12.7936 11.2305 2.00073 7.99986" stroke="#E6C348" stroke-width="2" stroke-linecap="round"/>
<path d="M12.5301 12.6397C10.6761 12.1887 6.94732 10.5069 6.86372 7.38729C6.78012 4.26763 11.03 5.41331 13.1654 6.37612C14.2431 6.97162 16.1955 8.54825 15.3838 10.0908" stroke="#E6C348" stroke-width="2" stroke-linecap="round"/>
<path d="M22 30C21.05 25.6725 18.5 15.5 30 26M17.3885 20.786C20.2573 25.5791 23.4414 24.7736 24.6748 23.7718C25.1757 22.9968 25.504 20.7083 22.8101 17.7549C19.4427 14.0631 18.4541 13.862 17.4654 13.6608C16.4767 13.4596 13.8026 14.7948 17.3885 20.786Z" stroke="#E6C348" stroke-width="2" stroke-linecap="round"/>
<path d="M19.6895 6.65517L21.5515 2" stroke="#E6C348" stroke-width="2" stroke-linecap="round" stroke-linejoin="round"/>
<path d="M22.4824 9.44838L26.2066 6.65527" stroke="#E6C348" stroke-width="2" stroke-linecap="round"/>
<path d="M24.3457 13.1724L28.0698 15.0344" stroke="#E6C348" stroke-width="2" stroke-linecap="round"/>
</svg>
