<svg width="30" height="30" viewBox="0 0 30 30" fill="none" xmlns="http://www.w3.org/2000/svg">
<path d="M7.00949 30C9.53015 30 10.8683 27.8107 11.2618 26.5174C11.2681 26.497 11.2739 26.4761 11.2793 26.4549C12.1963 22.7616 13.6569 16.9078 14.739 12.6499H18.6106C19.3385 12.6499 19.9288 12.0761 19.9288 11.3679C19.9288 10.6598 19.3385 10.086 18.6106 10.086H15.3942C15.7406 8.7444 15.994 7.78892 16.0938 7.46285L16.2046 7.09783C16.6133 5.74154 17.5703 2.56459 19.0502 2.56459C20.4225 2.56459 20.6271 4.61997 20.6364 4.71933C20.6949 5.42305 21.326 5.95457 22.0514 5.89374C22.7774 5.83985 23.3207 5.22285 23.2646 4.51724C23.1415 2.95466 22.101 0 19.0498 0C15.5949 0 14.2979 4.30652 13.6747 6.37664L13.5686 6.72587C13.442 7.13551 13.1097 8.3977 12.6764 10.086H8.06408C7.33591 10.086 6.74585 10.6598 6.74585 11.3679C6.74585 12.0761 7.33591 12.6499 8.06408 12.6499H12.0233C10.6698 17.9888 8.9206 25.0308 8.72817 25.8061C8.65631 26.0092 8.11581 27.4358 7.01014 27.4358C5.32177 27.4358 4.59079 25.1312 4.58494 25.114C4.38234 24.4342 3.65309 24.0408 2.95198 24.2391C2.25282 24.4363 1.84978 25.1472 2.05238 25.8274C2.51365 27.3769 4.07627 30 7.00949 30Z" fill="#0C2373"/>
<path d="M26.5607 26.6939C27.3375 26.6939 27.9904 26.1573 27.9904 25.3031C27.9904 24.9063 27.8272 24.5482 27.4797 24.1508L24.7424 21.0913L27.3986 18.0714C27.6436 17.7733 27.8272 17.4554 27.8272 17.0382C27.8272 16.2825 27.1936 15.7266 26.3762 15.7266C25.8249 15.7266 25.3963 16.0642 25.0279 16.5021L22.9649 19.1237L20.9425 16.5016C20.5334 16.0055 20.105 15.7266 19.4922 15.7266C18.7151 15.7266 18.0621 16.2636 18.0621 17.1178C18.0621 17.5146 18.2257 17.8727 18.5723 18.2695L21.1263 21.1307L18.327 24.3491C18.0614 24.6472 17.8984 24.965 17.8984 25.3822C17.8984 26.1378 18.5318 26.6935 19.3485 26.6935C19.9002 26.6935 20.329 26.3558 20.6968 25.9184L22.9025 23.0976L25.1089 25.9184C25.5188 26.4158 25.9479 26.6939 26.5607 26.6939Z" fill="#0C2373"/>
</svg>
