<svg width="50" height="50" viewBox="0 0 50 50" fill="none" xmlns="http://www.w3.org/2000/svg">
<circle cx="25" cy="25" r="25" fill="#0C2373"/>
<path d="M17.216 39.7958C19.7174 39.7958 21.0453 37.5619 21.4358 36.2422C21.442 36.2213 21.4478 36.2001 21.4532 36.1784C22.3631 32.4097 23.8126 26.4365 24.8864 22.0917H28.7283C29.4507 22.0917 30.0365 21.5061 30.0365 20.7835C30.0365 20.0609 29.4507 19.4754 28.7283 19.4754H25.5366C25.8803 18.1065 26.1318 17.1315 26.2308 16.7987L26.3408 16.4263C26.7463 15.0423 27.696 11.8005 29.1646 11.8005C30.5264 11.8005 30.7294 13.8978 30.7387 13.9992C30.7967 14.7173 31.423 15.2597 32.1428 15.1976C32.8633 15.1426 33.4024 14.513 33.3468 13.793C33.2246 12.1985 32.192 9.18359 29.1642 9.18359C25.7357 9.18359 24.4486 13.578 23.8302 15.6904L23.7249 16.0467C23.5993 16.4647 23.2696 17.7527 22.8395 19.4754H18.2625C17.5399 19.4754 16.9544 20.0609 16.9544 20.7835C16.9544 21.5061 17.5399 22.0917 18.2625 22.0917H22.1915C20.8483 27.5395 19.1125 34.7252 18.9216 35.5163C18.8502 35.7236 18.3139 37.1793 17.2167 37.1793C15.5412 37.1793 14.8158 34.8277 14.81 34.8101C14.609 34.1165 13.8853 33.715 13.1896 33.9174C12.4958 34.1186 12.0958 34.844 12.2969 35.538C12.7546 37.1192 14.3053 39.7958 17.216 39.7958Z" fill="white"/>
<path d="M36.6164 36.4224C37.3874 36.4224 38.0352 35.8748 38.0352 35.0032C38.0352 34.5983 37.8732 34.2329 37.5285 33.8273L34.8121 30.7054L37.4479 27.6239C37.6911 27.3197 37.8732 26.9954 37.8732 26.5696C37.8732 25.7985 37.2445 25.2312 36.4334 25.2312C35.8863 25.2312 35.461 25.5757 35.0954 26.0225L33.0482 28.6977L31.0413 26.0221C30.6353 25.5158 30.2102 25.2312 29.6021 25.2312C28.831 25.2312 28.1829 25.7792 28.1829 26.6508C28.1829 27.0557 28.3453 27.4211 28.6892 27.826L31.2236 30.7456L28.4458 34.0297C28.1823 34.3339 28.0205 34.6582 28.0205 35.0839C28.0205 35.8549 28.649 36.4219 29.4595 36.4219C30.007 36.4219 30.4325 36.0774 30.7975 35.631L32.9863 32.7527L35.1758 35.631C35.5826 36.1386 36.0083 36.4224 36.6164 36.4224Z" fill="white"/>
</svg>
