<svg width="196" height="50" viewBox="0 0 196 50" fill="none" xmlns="http://www.w3.org/2000/svg">
<path d="M62.6855 36H58.5156V16.0117H69.9727V19.4844H62.6855V24.6387H69.4668V28.0977H62.6855V36ZM82.3457 36L77.5332 20.3184H77.4102C77.5833 23.5085 77.6699 25.6367 77.6699 26.7031V36H73.8828V16.0117H79.6523L84.3828 31.2969H84.4648L89.4824 16.0117H95.252V36H91.3008V26.5391C91.3008 26.0924 91.3053 25.5775 91.3145 24.9941C91.3327 24.4108 91.3965 22.8613 91.5059 20.3457H91.3828L86.2285 36H82.3457ZM111.809 36H100.297V16.0117H111.809V19.4844H104.535V23.873H111.303V27.3457H104.535V32.5H111.809V36ZM128.229 36L126.779 31.2422H119.492L118.043 36H113.477L120.531 15.9297H125.713L132.795 36H128.229ZM125.768 27.6875C124.428 23.3763 123.671 20.9382 123.498 20.373C123.334 19.8079 123.215 19.3613 123.143 19.0332C122.842 20.1999 121.98 23.0846 120.559 27.6875H125.768ZM134.408 34.0449C134.408 33.2793 134.613 32.7005 135.023 32.3086C135.434 31.9167 136.031 31.7207 136.814 31.7207C137.571 31.7207 138.154 31.9212 138.564 32.3223C138.984 32.7233 139.193 33.2975 139.193 34.0449C139.193 34.765 138.984 35.3346 138.564 35.7539C138.145 36.1641 137.562 36.3691 136.814 36.3691C136.049 36.3691 135.456 36.1686 135.037 35.7676C134.618 35.3574 134.408 34.7832 134.408 34.0449ZM143.309 36V16.0117H147.547V32.5H155.654V36H143.309ZM158.635 16.7637C158.635 15.4056 159.391 14.7266 160.904 14.7266C162.417 14.7266 163.174 15.4056 163.174 16.7637C163.174 17.4108 162.982 17.9167 162.6 18.2812C162.226 18.6367 161.661 18.8145 160.904 18.8145C159.391 18.8145 158.635 18.1309 158.635 16.7637ZM162.982 36H158.812V20.7148H162.982V36ZM173.811 32.9512C174.54 32.9512 175.415 32.7917 176.436 32.4727V35.5762C175.396 36.041 174.12 36.2734 172.607 36.2734C170.939 36.2734 169.723 35.8542 168.957 35.0156C168.201 34.168 167.822 32.901 167.822 31.2148V23.8457H165.826V22.082L168.123 20.6875L169.326 17.4609H171.992V20.7148H176.271V23.8457H171.992V31.2148C171.992 31.8073 172.156 32.2448 172.484 32.5273C172.822 32.8099 173.264 32.9512 173.811 32.9512ZM185.869 23.3945C184.985 23.3945 184.292 23.6771 183.791 24.2422C183.29 24.7982 183.003 25.5911 182.93 26.6211H188.781C188.763 25.5911 188.494 24.7982 187.975 24.2422C187.455 23.6771 186.753 23.3945 185.869 23.3945ZM186.457 36.2734C183.996 36.2734 182.073 35.5944 180.688 34.2363C179.302 32.8783 178.609 30.9551 178.609 28.4668C178.609 25.9056 179.247 23.9277 180.523 22.5332C181.809 21.1296 183.581 20.4277 185.842 20.4277C188.002 20.4277 189.684 21.043 190.887 22.2734C192.09 23.5039 192.691 25.2038 192.691 27.373V29.3965H182.834C182.88 30.5814 183.23 31.5065 183.887 32.1719C184.543 32.8372 185.464 33.1699 186.648 33.1699C187.569 33.1699 188.439 33.0742 189.26 32.8828C190.08 32.6914 190.937 32.3861 191.83 31.9668V35.1934C191.101 35.5579 190.322 35.8268 189.492 36C188.663 36.1823 187.651 36.2734 186.457 36.2734Z" fill="#575757"/>
<rect x="2" y="45" width="11" height="11" rx="5.5" transform="rotate(-90 2 45)" fill="#64BC7C"/>
<rect x="7.49963" y="12" width="39.4579" height="10.6061" rx="5.30303" transform="rotate(45 7.49963 12)" fill="#E6C348"/>
<rect x="18.4996" y="1" width="39.4579" height="10.6061" rx="5.30303" transform="rotate(45 18.4996 1)" fill="#FF9C33"/>
<path d="M33 8.5C33 5.46243 35.4624 3 38.5 3C41.5376 3 44 5.46243 44 8.5C44 11.5376 41.5376 14 38.5 14C35.4624 14 33 11.5376 33 8.5Z" fill="#BC4343"/>
</svg>
